<?xml version="1.0" encoding="UTF-8"?>
<svg xmlns="http://www.w3.org/2000/svg" style="position:absolute;width:0;height:0;overflow:hidden" aria-hidden="true"><symbol id="i-menu" viewBox="0 0 24 24" ><g stroke="none" fill-rule="evenodd"><path d="M5 3C3.895 3 3 3.895 3 5C3 6.105 3.895 7 5 7C6.105 7 7 6.105 7 5C7 3.895 6.105 3 5 3ZM12 3C10.895 3 10 3.895 10 5C10 6.105 10.895 7 12 7C13.105 7 14 6.105 14 5C14 3.895 13.105 3 12 3ZM19 3C17.895 3 17 3.895 17 5C17 6.105 17.895 7 19 7C20.105 7 21 6.105 21 5C21 3.895 20.105 3 19 3ZM5 10C3.895 10 3 10.895 3 12C3 13.105 3.895 14 5 14C6.105 14 7 13.105 7 12C7 10.895 6.105 10 5 10ZM12 10C10.895 10 10 10.895 10 12C10 13.105 10.895 14 12 14C13.105 14 14 13.105 14 12C14 10.895 13.105 10 12 10ZM19 10C17.895 10 17 10.895 17 12C17 13.105 17.895 14 19 14C20.105 14 21 13.105 21 12C21 10.895 20.105 10 19 10ZM5 17C3.895 17 3 17.895 3 19C3 20.105 3.895 21 5 21C6.105 21 7 20.105 7 19C7 17.895 6.105 17 5 17ZM12 17C10.895 17 10 17.895 10 19C10 20.105 10.895 21 12 21C13.105 21 14 20.105 14 19C14 17.895 13.105 17 12 17ZM19 17C17.895 17 17 17.895 17 19C17 20.105 17.895 21 19 21C20.105 21 21 20.105 21 19C21 17.895 20.105 17 19 17Z" fill="current"></path></g></symbol><symbol id="i-search" viewBox="0 0 24 24" ><g stroke="none" fill-rule="evenodd"><path d="M9 2C5.145 2 2 5.145 2 9s3.145 7 7 7a6.967 6.967 0 0 0 4.574-1.719l.426.426V16l6 6 2-2-6-6h-1.293l-.426-.426A6.967 6.967 0 0 0 16 9c0-3.855-3.145-7-7-7zm0 2c2.773 0 5 2.227 5 5s-2.227 5-5 5-5-2.227-5-5 2.227-5 5-5z" fill="current" fill-rule="nonzero"></path></g></symbol><symbol id="i-cart" viewBox="0 0 24 24" ><g stroke="none" fill-rule="evenodd"><path d="M11.028 1c-.329 0-.637.16-.825.43L5.668 8H1a1 1 0 0 0-.965 1.266l2.559 9.265A2.015 2.015 0 0 0 4.524 20h12.953c.894 0 1.687-.605 1.926-1.469l2.562-9.265c.082-.301.02-.625-.168-.871A1.007 1.007 0 0 0 21 8h-4.66l-4.484-6.563A1.002 1.002 0 0 0 11.03 1h-.003zm-.004 2.766L13.918 8h-5.82l2.926-4.234zM2.313 10h17.375l-2.215 8H4.523l-2.21-8zM11 12a1.999 1.999 0 1 0 0 4c1.106 0 2-.895 2-2s-.894-2-2-2z" fill="current" fill-rule="nonzero"></path></g></symbol><symbol id="i-user" viewBox="0 0 24 24" ><g stroke="none" fill-rule="evenodd"><path d="M12 2S8 3 8 7c0 2.21 1.79 4 4 4s4-1.79 4-4c0-2.645-2.184-3.5-3-3.5L12 2zm-.719 2.531.055.078.594.895h1.027C13.09 5.527 14 5.746 14 7c0 1.102-.898 2-2 2-1.102 0-2-.898-2-2 0-1.238.645-2.008 1.281-2.469zM12 14c-3.14 0-9 1.547-9 4.5V21h18v-2.5c0-2.953-5.86-4.5-9-4.5zm0 2c3.293 0 7 1.633 7 2.5v.5H5v-.5c0-.867 3.707-2.5 7-2.5z" fill="current" fill-rule="nonzero"></path></g></symbol><symbol id="i-heart" viewBox="0 0 24 24" ><g stroke="none"><path d="M16.5 3C13.605 3 12 5.09 12 5.09S10.395 3 7.5 3A5.5 5.5 0 0 0 2 8.5c0 4.171 4.912 8.213 6.281 9.49C9.858 19.46 12 21.35 12 21.35s2.142-1.89 3.719-3.36C17.088 16.713 22 12.671 22 8.5A5.5 5.5 0 0 0 16.5 3zm-1.689 13.11c-.177.16-.331.299-.456.416-.751.7-1.639 1.503-2.355 2.145a175.713 175.713 0 0 1-2.355-2.145c-.126-.117-.28-.257-.456-.416C7.769 14.827 4 11.419 4 8.5 4 6.57 5.57 5 7.5 5c1.827 0 2.886 1.275 2.914 1.308L12 8l1.586-1.692C13.596 6.295 14.673 5 16.5 5 18.43 5 20 6.57 20 8.5c0 2.919-3.769 6.327-5.189 7.61z" fill="current"></path></g></symbol><symbol id="i-share" viewBox="0 0 24 24" ><g stroke="none"><path d="M18 2c-1.645 0-3 1.355-3 3 0 .19.022.377.057.559L7.922 9.72A2.969 2.969 0 0 0 6 9c-1.645 0-3 1.355-3 3s1.355 3 3 3a2.97 2.97 0 0 0 1.922-.72l7.135 4.16A2.963 2.963 0 0 0 15 19c0 1.645 1.355 3 3 3s3-1.355 3-3-1.355-3-3-3c-.733 0-1.398.28-1.922.723l-7.135-4.164C8.978 12.377 9 12.19 9 12c0-.191-.022-.377-.057-.559l7.135-4.162A2.97 2.97 0 0 0 18 8c1.645 0 3-1.355 3-3s-1.355-3-3-3zm0 2c.564 0 1 .436 1 1 0 .564-.436 1-1 1-.564 0-1-.436-1-1 0-.564.436-1 1-1zM6 11c.564 0 1 .436 1 1 0 .564-.436 1-1 1-.564 0-1-.436-1-1 0-.564.436-1 1-1zm12 7c.564 0 1 .436 1 1 0 .564-.436 1-1 1-.564 0-1-.436-1-1 0-.564.436-1 1-1z" fill="current"></path></g><defs><clipPath></clipPath></defs></symbol><symbol id="i-back" viewBox="0 0 24 24" ><g stroke="none" fill-rule="evenodd"><path fill="current" fill-rule="nonzero" d="m14 5-1.5 1.5 4.57 4.57H3v2h14.07l-4.57 4.57 1.5 1.5 7.07-7.07z"></path></g></symbol><symbol id="i-chev-left" viewBox="0 0 24 24" ><g stroke="none" fill-rule="evenodd"><path fill="current" fill-rule="nonzero" d="M14.07 6 8 12.07l6.07 6.07 1.5-1.5L11 12.07l4.57-4.57z"></path></g></symbol><symbol id="i-chev-right" viewBox="0 0 24 24" ><g stroke="none" fill-rule="evenodd"><path fill="current" fill-rule="nonzero" d="m14 5-1.5 1.5 4.57 4.57H3v2h14.07l-4.57 4.57 1.5 1.5 7.07-7.07z"></path></g></symbol><symbol id="i-star" viewBox="0 0 24 24" ><path fill-rule="evenodd" clip-rule="evenodd" d="m20.02 9.496-4.1-.591a.704.704 0 0 1-.542-.388l-1.828-3.66a1.82 1.82 0 0 0-.751-.752 1.757 1.757 0 0 0-2.345.752l-1.83 3.659a.715.715 0 0 1-.553.39l-4.09.59a1.71 1.71 0 0 0-.957 2.925l2.967 2.856a.687.687 0 0 1 .202.618l-.7 4.018a1.725 1.725 0 0 0 2.51 1.802l3.66-1.892a.727.727 0 0 1 .683.002l3.642 1.884c.327.18.7.244 1.093.184a1.736 1.736 0 0 0 1.43-1.989l-.7-4.01a.7.7 0 0 1 .207-.633l2.958-2.84c.277-.268.46-.624.51-1.005a1.716 1.716 0 0 0-1.467-1.92Z" fill="current"></path></symbol><symbol id="i-star-o" viewBox="0 0 24 24" ><path fill-rule="evenodd" clip-rule="evenodd" d="M11.82 5.426 9.99 9.075v.002c-.293.579-.85.978-1.492 1.068h-.001l-4.096.59a.461.461 0 0 0-.26.788l2.958 2.84.001.001c.47.45.686 1.103.574 1.745l-.699 4.008a.478.478 0 0 0 .696.494l.006-.003 3.656-1.895a2 2 0 0 1 1.837 0l3.66 1.897a.478.478 0 0 0 .697-.494l-.698-4.005a1.948 1.948 0 0 1 .575-1.75l2.955-2.838a.461.461 0 0 0-.259-.789l-.01-.001-4.087-.589h-.001c-.641-.09-1.2-.49-1.492-1.07l-1.826-3.648a.483.483 0 0 0-.205-.205h-.002a.49.49 0 0 0-.658.205Zm1.347-1.538a1.99 1.99 0 0 0-2.682.851L8.651 8.4v.001a.482.482 0 0 1-.363.259L4.2 9.249a1.962 1.962 0 0 0-1.1 3.355h.002l2.961 2.843h.001a.45.45 0 0 1 .134.405l-.7 4.013-.002.008c-.07.427.004.862.204 1.241v.002a1.978 1.978 0 0 0 2.671.822l3.653-1.893a.5.5 0 0 1 .458 0l3.647 1.89.003.002c.38.2.813.272 1.236.204h.002a1.979 1.979 0 0 0 1.639-2.268l-.702-4.021v-.002a.446.446 0 0 1 .132-.402l2.962-2.846a1.961 1.961 0 0 0-1.1-3.355l-4.086-.588h-.002a.479.479 0 0 1-.361-.258l-1.828-3.652-.005-.01a1.983 1.983 0 0 0-.851-.85Z" fill="current" stroke-width="0.3"></path></symbol><symbol id="i-fire" viewBox="0 0 24 24" fill="current" ><path d="M6 14C6 14.8667 6.175 15.6875 6.525 16.4625C6.875 17.2375 7.375 17.9167 8.025 18.5C8.00833 18.4167 8 18.3417 8 18.275V18.05C8 17.5167 8.1 17.0167 8.3 16.55C8.5 16.0833 8.79167 15.6583 9.175 15.275L12 12.5L14.825 15.275C15.2083 15.6583 15.5 16.0833 15.7 16.55C15.9 17.0167 16 17.5167 16 18.05V18.275C16 18.3417 15.9917 18.4167 15.975 18.5C16.625 17.9167 17.125 17.2375 17.475 16.4625C17.825 15.6875 18 14.8667 18 14C18 13.1667 17.8458 12.3792 17.5375 11.6375C17.2292 10.8958 16.7833 10.2333 16.2 9.65C15.8667 9.86667 15.5167 10.0292 15.15 10.1375C14.7833 10.2458 14.4083 10.3 14.025 10.3C12.9917 10.3 12.0958 9.95833 11.3375 9.275C10.5792 8.59167 10.1417 7.75 10.025 6.75C9.375 7.3 8.8 7.87083 8.3 8.4625C7.8 9.05417 7.37917 9.65417 7.0375 10.2625C6.69583 10.8708 6.4375 11.4917 6.2625 12.125C6.0875 12.7583 6 13.3833 6 14ZM12 15.3L10.575 16.7C10.3917 16.8833 10.25 17.0917 10.15 17.325C10.05 17.5583 10 17.8 10 18.05C10 18.5833 10.1958 19.0417 10.5875 19.425C10.9792 19.8083 11.45 20 12 20C12.55 20 13.0208 19.8083 13.4125 19.425C13.8042 19.0417 14 18.5833 14 18.05C14 17.7833 13.95 17.5375 13.85 17.3125C13.75 17.0875 13.6083 16.8833 13.425 16.7L12 15.3ZM12 3V6.3C12 6.86667 12.1958 7.34167 12.5875 7.725C12.9792 8.10833 13.4583 8.3 14.025 8.3C14.325 8.3 14.6042 8.2375 14.8625 8.1125C15.1208 7.9875 15.35 7.8 15.55 7.55L16 7C17.2333 7.7 18.2083 8.675 18.925 9.925C19.6417 11.175 20 12.5333 20 14C20 16.2333 19.225 18.125 17.675 19.675C16.125 21.225 14.2333 22 12 22C9.76667 22 7.875 21.225 6.325 19.675C4.775 18.125 4 16.2333 4 14C4 11.85 4.72083 9.80833 6.1625 7.875C7.60417 5.94167 9.55 4.31667 12 3Z" fill="current"></path></symbol><symbol id="i-clock" viewBox="0 0 24 24" ><g stroke="none" fill-rule="evenodd"><path d="M9 2v2h6V2H9zm9.957 1.793L17.668 5.32l2.945 2.5 1.293-1.527-2.949-2.5zM12 5c-4.977 0-9 4.023-9 9s4.023 9 9 9 9-4.023 9-9-4.023-9-9-9zm0 2c3.91 0 7 3.09 7 7s-3.09 7-7 7-7-3.09-7-7 3.09-7 7-7zm-1 2v6h2V9h-2z" fill="current" stroke="none" fill-rule="nonzero"></path></g></symbol><symbol id="i-truck" viewBox="0 0 48 48" ><g stroke="none" fill-rule="evenodd"><path fill-rule="evenodd" clip-rule="evenodd" d="M10.5961 11.3018C9.16294 11.3018 8 12.4637 8 13.8979V30.2084C8 31.2848 8.64026 32.212 9.56056 32.63C10.2806 30.5364 12.2673 29.032 14.6053 29.032C17.0301 29.032 19.077 30.6502 19.7249 32.8656L27.7738 32.8666C28.2822 31.1266 29.6538 29.7548 31.3938 29.2458L31.3942 13.9601C31.3942 13.9601 31.3942 13.9602 31.3942 13.9601C31.3942 12.4924 30.2034 11.3018 28.7358 11.3018H10.5961ZM34.3938 29.2458C36.1332 29.7548 37.5046 31.1262 38.0134 32.8658H38.3416C38.3414 32.8658 38.3418 32.8658 38.3416 32.8658C39.8092 32.8656 41 31.675 41 30.2074V26.3216H37.697C36.8686 26.3216 36.197 25.65 36.197 24.8216C36.197 23.9932 36.8686 23.3216 37.697 23.3216H41C41 22.0434 40.245 20.8846 39.0772 20.3696L34.394 18.3033L34.3938 29.2458ZM34.3942 15.0243V13.9602C34.3942 10.8356 31.8604 8.30176 28.7358 8.30176H10.5961C7.50702 8.30176 5 10.8059 5 13.8979V30.2084C5 32.9182 6.90582 35.1838 9.44998 35.7374C10.0554 38.0182 12.134 39.6988 14.6053 39.6988C17.03 39.6988 19.0768 38.0808 19.7248 35.8656L27.7744 35.8666C28.4228 38.0814 30.4694 39.6988 32.8936 39.6988C35.3184 39.6988 37.365 38.081 38.0132 35.8658H38.3412C41.4658 35.8658 44 33.332 44 30.2074V23.321C44 20.8554 42.5446 18.6199 40.2878 17.6248C40.2878 17.6247 40.288 17.6248 40.2878 17.6248L34.3942 15.0243ZM30.561 34.4262C30.5932 35.6868 31.6252 36.6988 32.8936 36.6988C34.1824 36.6988 35.227 35.6542 35.227 34.3654C35.227 33.0768 34.1824 32.032 32.8936 32.032C31.6248 32.032 30.5924 33.045 30.561 34.3064C30.5618 34.3264 30.5622 34.3466 30.5622 34.367C30.5622 34.3868 30.5618 34.4066 30.561 34.4262ZM14.6053 32.032C13.3166 32.032 12.2719 33.0768 12.2719 34.3654C12.2719 35.6542 13.3166 36.6988 14.6053 36.6988C15.894 36.6988 16.9387 35.6542 16.9387 34.3654C16.9387 33.0768 15.894 32.032 14.6053 32.032Z" fill="current"></path></g></symbol><symbol id="i-truck2" viewBox="0 0 24 24" ><g fill="none" fill-rule="evenodd"><path d="M5.13593 17.1852L5.07919 17.1851C3.93111 17.1851 3 16.254 3 15.106V12.5938" stroke="current" stroke-width="1.5" stroke-linecap="round" stroke-linejoin="round"></path><path fill-rule="evenodd" clip-rule="evenodd" d="M8.97014 17.1823C8.97014 16.1237 8.112 15.2656 7.05343 15.2656C5.99486 15.2656 5.13672 16.1237 5.13672 17.1823C5.13672 18.2409 5.99486 19.099 7.05343 19.099C8.112 19.099 8.97014 18.2409 8.97014 17.1823Z" stroke="current" stroke-width="1.5" stroke-linecap="round" stroke-linejoin="round"></path><path fill-rule="evenodd" clip-rule="evenodd" d="M18.1127 17.1823C18.1127 16.1237 17.2546 15.2656 16.196 15.2656C15.1374 15.2656 14.2793 16.1237 14.2793 17.1823C14.2793 18.2409 15.1374 19.099 16.196 19.099C17.2546 19.099 18.1127 18.2409 18.1127 17.1823Z" stroke="current" stroke-width="1.5" stroke-linecap="round" stroke-linejoin="round"></path><path d="M8.96875 17.1836H14.2795" stroke="current" stroke-width="1.5" stroke-linecap="round" stroke-linejoin="round"></path><path d="M16.1968 15.2645L16.1971 6.97763C16.1971 5.82955 15.266 4.89844 14.1179 4.89844H3" stroke="current" stroke-width="1.5" stroke-linecap="round" stroke-linejoin="round"></path><path d="M3 9.71816H7.45124M4.88794 7.30859H7.45166" stroke="current" stroke-width="1.5" stroke-linecap="round" stroke-linejoin="round"></path><path d="M18.1133 17.1815L18.9206 17.1817C20.0686 17.1817 20.9997 16.2506 20.9997 15.1025V11.6592C20.9997 10.7232 20.4471 9.87488 19.5909 9.49737L16.1973 8" stroke="current" stroke-width="1.5" stroke-linecap="round" stroke-linejoin="round"></path><path d="M18.5977 12.4102H20.9989" stroke="current" stroke-width="1.5" stroke-linecap="round" stroke-linejoin="round"></path></g></symbol><symbol id="i-shield" viewBox="0 0 16 16" ><g stroke="none"><path d="M8 .667 2 3.333v4c0 5.22 4.293 7.658 6 8 1.707-.342 6-2.78 6-8v-4L8 .667zm4.667 6.666c0 4.09-3.19 6.17-4.667 6.625-1.477-.455-4.667-2.535-4.667-6.625V4.2L8 2.126 12.667 4.2v3.133z" fill="current"></path></g><defs stroke="none" fill="none"><clipPath><path d="M0 0h16v16H0z"></path></clipPath></defs></symbol><symbol id="i-headset" viewBox="0 0 24 24" ><g stroke="none" fill-rule="evenodd"><path d="M12 2c-4.406 0-8 3.594-8 8V11.902c-.574.547-1 1.251-1 2.098 0 1.242.858 2.163 1.943 2.613C6.244 19.723 8.85 22 12 22h3v-2h-3c-2.258 0-4.309-1.7-5.34-4.387l-.213-.55-.586-.083A.978.978 0 0 1 5 14c0-.385.194-.687.498-.861L6 12.852V11c0-.565.435-1 1-1h10c.565 0 1 .435 1 1v5h-4.088a1.5 1.5 0 0 0-2.912.5 1.5 1.5 0 0 0 1.5 1.5H20c1.1 0 2-.9 2-2v-2c0-1.1-.9-2-2-2v-2c0-4.406-3.594-8-8-8zm0 2a5.98 5.98 0 0 1 5.686 4.088A2.94 2.94 0 0 0 17 8H7a2.94 2.94 0 0 0-.686.088A5.98 5.98 0 0 1 12 4z" fill="current" fill-rule="nonzero"></path></g></symbol><symbol id="i-return" viewBox="0 0 16 16" ><path d="m4.667 1.333-4 4 4 4V6H11c1.653 0 3 1.347 3 3s-1.347 3-3 3h-1v1.333h1A4.35 4.35 0 0 0 15.333 9 4.35 4.35 0 0 0 11 4.667H4.667V1.333zM2 12v1.333h1.333V12H2zm2.667 0v1.333H6V12H4.667zm2.666 0v1.333h1.334V12H7.333z" fill="current" stroke="none"></path></symbol><symbol id="i-pin" viewBox="0 0 24 24"><g stroke="none"><path d="M12 12C10.9 12 10 11.1 10 10C10 8.9 10.9 8 12 8C13.1 8 14 8.9 14 10C14 11.1 13.1 12 12 12ZM18 10.2C18 6.57 15.35 4 12 4C8.65 4 6 6.57 6 10.2C6 12.54 7.95 15.64 12 19.34C16.05 15.64 18 12.54 18 10.2ZM12 2C16.2 2 20 5.22 20 10.2C20 13.52 17.33 17.45 12 22C6.67 17.45 4 13.52 4 10.2C4 5.22 7.8 2 12 2Z" fill="current"></path></g></symbol><symbol id="i-tag" viewBox="0 0 24 24" ><g stroke="none" fill-rule="evenodd"><path d="M12.1696 3C12.1696 3 2.88957 12.28 2.58957 12.59C1.79957 13.37 1.79957 14.63 2.58957 15.41C3.49957 16.33 7.40957 20.24 8.58957 21.41C9.36957 22.2 10.6296 22.2 11.4096 21.41C11.7196 21.11 20.9996 11.83 20.9996 11.83V3H12.1696ZM11.5096 8C12.3296 8 12.9996 8.67 12.9996 9.49C12.9996 10.32 12.3296 10.99 11.5096 10.99C10.6796 10.99 10.0096 10.32 10.0096 9.49C10.0096 8.67 10.6796 8 11.5096 8ZM10.4896 18C9.66957 18 8.99957 17.33 8.99957 16.51C8.99957 15.68 9.66957 15.01 10.4896 15.01C11.3196 15.01 11.9896 15.68 11.9896 16.51C11.9896 17.33 11.3196 18 10.4896 18ZM14.9996 14H6.99957V12H14.9996V14ZM17.4996 8C16.6696 8 15.9996 7.33 15.9996 6.5C15.9996 5.67 16.6696 5 17.4996 5C18.3296 5 18.9996 5.67 18.9996 6.5C18.9996 7.33 18.3296 8 17.4996 8Z" fill="current"></path></g></symbol><symbol id="i-grid" viewBox="0 0 24 24" ><g clip-path="url(#clip0_1150_227)"><path stroke-width="0.3" d="M5 11C4.591 11 4.23875 10.8523 3.94325 10.5568C3.64775 10.2613 3.5 9.909 3.5 9.5V5C3.5 4.591 3.64775 4.23875 3.94325 3.94325C4.23875 3.64775 4.591 3.5 5 3.5H9.5C9.909 3.5 10.2613 3.64775 10.5567 3.94325C10.8522 4.23875 11 4.591 11 5V9.5C11 9.909 10.8522 10.2613 10.5567 10.5568C10.2613 10.8523 9.909 11 9.5 11H5ZM5 20.5C4.591 20.5 4.23875 20.3523 3.94325 20.0568C3.64775 19.7613 3.5 19.409 3.5 19V14.5C3.5 14.091 3.64775 13.7388 3.94325 13.4433C4.23875 13.1478 4.591 13 5 13H9.5C9.909 13 10.2613 13.1478 10.5567 13.4433C10.8522 13.7388 11 14.091 11 14.5V19C11 19.409 10.8522 19.7613 10.5567 20.0568C10.2613 20.3523 9.909 20.5 9.5 20.5H5ZM14.5 11C14.091 11 13.7387 10.8523 13.4432 10.5568C13.1477 10.2613 13 9.909 13 9.5V5C13 4.591 13.1477 4.23875 13.4432 3.94325C13.7387 3.64775 14.091 3.5 14.5 3.5H19C19.409 3.5 19.7613 3.64775 20.0568 3.94325C20.3523 4.23875 20.5 4.591 20.5 5V9.5C20.5 9.909 20.3523 10.2613 20.0568 10.5568C19.7613 10.8523 19.409 11 19 11H14.5ZM14.5 20.5C14.091 20.5 13.7387 20.3523 13.4432 20.0568C13.1477 19.7613 13 19.409 13 19V14.5C13 14.091 13.1477 13.7388 13.4432 13.4433C13.7387 13.1478 14.091 13 14.5 13H19C19.409 13 19.7613 13.1478 20.0568 13.4433C20.3523 13.7388 20.5 14.091 20.5 14.5V19C20.5 19.409 20.3523 19.7613 20.0568 20.0568C19.7613 20.3523 19.409 20.5 19 20.5H14.5ZM5 9.5H9.5V5H5V9.5ZM14.5 9.5H19V5H14.5V9.5ZM14.5 19H19V14.5H14.5V19ZM5 19H9.5V14.5H5V19Z" fill="current"></path></g><defs><clipPath id="clip0_1150_227"><rect fill="current"></rect></clipPath></defs></symbol><symbol id="i-box" viewBox="0 0 16 16" ><g stroke="none"><path d="M1.333 3.333v8.125h1.213c0 1.036.813 1.875 1.818 1.875 1.004 0 1.818-.84 1.818-1.875h3.636c0 1.036.814 1.875 1.818 1.875 1.005 0 1.819-.84 1.819-1.875h1.212V8.333l-1.483-3.059a1.208 1.208 0 0 0-1.085-.69h-1.675v-1.25h-9.09zm1.213 1.25h6.666v5.625H5.71a1.783 1.783 0 0 0-1.346-.625c-.537 0-1.013.244-1.346.625h-.472V4.583zm4.571.963L5.576 7.137l-.905-.933-.857.884 1.762 1.817 2.4-2.474-.859-.885zm3.307.287H12.1l1.356 2.796v1.58h-.473a1.783 1.783 0 0 0-1.346-.626c-.467 0-.89.188-1.212.487V5.833zm-6.06 4.844a.77.77 0 0 1 .757.781.77.77 0 0 1-.757.781.77.77 0 0 1-.758-.78c0-.431.34-.782.758-.782zm7.272 0a.77.77 0 0 1 .758.781.77.77 0 0 1-.758.781.77.77 0 0 1-.757-.78c0-.431.34-.782.757-.782z" fill="current"></path></g></symbol><symbol id="i-percent" viewBox="0 0 24 24" ><g stroke="none"><path d="M7.5 4A3.515 3.515 0 0 0 4 7.5C4 9.421 5.579 11 7.5 11S11 9.421 11 7.5 9.421 4 7.5 4zm8.686.418-10 14 1.628 1.164 10-14-1.628-1.164zM7.5 6C8.34 6 9 6.66 9 7.5S8.34 9 7.5 9 6 8.34 6 7.5 6.66 6 7.5 6zm9 7a3.515 3.515 0 0 0-3.5 3.5c0 1.921 1.579 3.5 3.5 3.5s3.5-1.579 3.5-3.5-1.579-3.5-3.5-3.5zm0 2c.84 0 1.5.66 1.5 1.5s-.66 1.5-1.5 1.5-1.5-.66-1.5-1.5.66-1.5 1.5-1.5z" fill="current"></path></g></symbol><symbol id="i-gift" viewBox="0 0 24 24" ><path d="M18 4H15.82C15.93 3.69 16 3.35 16 3C16 1.34 14.66 0 13 0C11.95 0 11.04 0.54 10.5 1.35L10 2.02L9.5 1.34C8.96 0.54 8.05 0 7 0C5.34 0 4 1.34 4 3C4 3.35 4.07 3.69 4.18 4H2C0.89 4 0.00999999 4.89 0.00999999 6L0 17C0 18.11 0.89 19 2 19H18C19.11 19 20 18.11 20 17V6C20 4.89 19.11 4 18 4ZM13 2C13.55 2 14 2.45 14 3C14 3.55 13.55 4 13 4C12.45 4 12 3.55 12 3C12 2.45 12.45 2 13 2ZM7 2C7.55 2 8 2.45 8 3C8 3.55 7.55 4 7 4C6.45 4 6 3.55 6 3C6 2.45 6.45 2 7 2ZM18 17H2V15H18V17ZM18 12H2V6H7.08L5 8.83L6.62 10L10 5.4L13.38 10L15 8.83L12.92 6H18V12Z" fill="current" stroke="none"></path></symbol><symbol id="i-check" viewBox="0 0 24 24"><g stroke="none"><path d="M19.281 5.281 9 15.563 4.719 11.28 3.28 12.72l5 5 .719.687.719-.687 11-11L19.28 5.28z" fill="current"></path></g></symbol><symbol id="i-plus" viewBox="0 0 24 24" ><g stroke="none" fill-rule="evenodd"><path d="M3 0h18a3 3 0 0 1 3 3v18a3 3 0 0 1-3 3H3a3 3 0 0 1-3-3V3a3 3 0 0 1 3-3z" fill="none"></path><path fill="current" fill-rule="nonzero" d="M11 3v8H3v2h8v8h2v-8h8v-2h-8V3z"></path></g></symbol><symbol id="i-info" viewBox="0 0 24 24" ><g stroke="none" stroke-width="1" fill-rule="evenodd"><g transform="translate(-720.000000, -198.000000)"><g transform="translate(264.000000, 182.000000)"><g transform="translate(456.000000, 16.000000)"><path d="M12,2 C6.476562,2 2,6.476562 2,12 C2,17.523438 6.476562,22 12,22 C17.523438,22 22,17.523438 22,12 C22,6.476562 17.523438,2 12,2 Z M13,17 L11,17 L11,11 L13,11 L13,17 Z M13,9 L11,9 L11,7 L13,7 L13,9 Z" fill="current" fill-rule="nonzero"></path></g></g></g></g></symbol><symbol id="i-toman" viewBox="0 0 24 24" ><g stroke="none" fill-rule="evenodd"><path d="M6.97 10.502c-.76-.015-1.444-.127-2.051-.335a4.36 4.36 0 0 1-1.538-.894 3.808 3.808 0 0 1-.972-1.43c-.224-.56-.336-1.203-.336-1.928 0-.382.033-.77.099-1.162.071-.397.163-.782.275-1.154.118-.372.25-.725.398-1.058.153-.332.312-.63.475-.893l.98.7a4.675 4.675 0 0 0-.315.588 7.284 7.284 0 0 0-.329.864c-.102.323-.188.67-.26 1.042A5.917 5.917 0 0 0 3.29 5.96c0 .229.018.47.054.723.04.253.112.501.214.744a2.713 2.713 0 0 0 1.094 1.288c.276.174.605.313.987.418.383.109.834.171 1.355.186h.206c.617 0 1.181-.085 1.691-.253a3.487 3.487 0 0 0 1.324-.752c.367-.333.645-.74.834-1.222.194-.476.29-1.007.29-1.593 0-.437-.045-.857-.137-1.259a7.799 7.799 0 0 0-.322-1.11 7.752 7.752 0 0 0-.712-1.467L11.233 1c.045.07.11.179.19.328.087.144.18.32.276.528.097.209.197.445.299.708.102.263.194.548.275.856.082.308.148.633.199.976.056.342.084.697.084 1.065 0 .784-.137 1.494-.413 2.13a4.573 4.573 0 0 1-1.155 1.615 4.903 4.903 0 0 1-1.768.998 6.147 6.147 0 0 1-2.25.298zM5.32 16.318a2.71 2.71 0 0 0 .82-.566c.229-.234.428-.5.596-.797.173-.303.342-.613.505-.93.133-.269.263-.522.39-.76.133-.244.28-.46.444-.648.434-.512.951-.767 1.553-.767.72 0 1.321.283 1.806.849.189.223.342.484.46.782a3.983 3.983 0 0 1 .282 1.511c0 .13-.013.308-.038.536-.02.229-.087.48-.199.752a2.474 2.474 0 0 1-.551.827c-.23.219-.49.365-.78.44a2.39 2.39 0 0 1-.582.066c-.383 0-.803-.089-1.262-.268-.485-.188-1.026-.494-1.623-.916a2.724 2.724 0 0 1-.596.581 3.52 3.52 0 0 1-1.523.61l-.092.016-.055.01a1.702 1.702 0 0 1-.399.032h-.064v-1.162c.441 0 .501-.016.908-.198zm2.518-.857c.22.16.441.3.665.425.23.119.45.22.658.305.215.085.414.15.597.194.189.044.35.067.482.067.051 0 .1-.003.146-.008a.838.838 0 0 0 .145-.03c.153-.05.275-.163.367-.342.097-.184.161-.397.192-.64.015-.115.023-.231.023-.35 0-.134-.016-.306-.046-.514a2.199 2.199 0 0 0-.222-.663 1.781 1.781 0 0 0-.482-.596 1.298 1.298 0 0 0-.735-.283h-.053a.614.614 0 0 0-.306.082 1.132 1.132 0 0 0-.291.276 3.668 3.668 0 0 0-.306.476c-.107.194-.227.42-.36.678l-.474.923zM11.939 21.853a9.545 9.545 0 0 0 2.097-.685 7.512 7.512 0 0 0 1.599-.99 4.81 4.81 0 0 0 1.063-1.162c.265-.412.429-.82.49-1.221-.168.005-.334.007-.497.007-.24 0-.516-.005-.827-.015a9.186 9.186 0 0 1-.987-.104 5.075 5.075 0 0 1-.941-.253 2.383 2.383 0 0 1-.727-.454 1.984 1.984 0 0 1-.474-.708c-.112-.278-.169-.61-.169-.998.005-.238.034-.489.085-.752.056-.268.132-.53.23-.79.101-.257.224-.503.366-.736.143-.239.309-.445.498-.618.189-.18.398-.32.627-.425.23-.109.482-.164.758-.164.357 0 .683.075.98.224.3.144.568.34.803.588.234.248.44.536.62.864.178.328.328.67.45 1.027a7.988 7.988 0 0 1 .405 2.145v1.162h-.068a5.376 5.376 0 0 1-1.133 2.524c-.285.363-.614.69-.986.983a7.105 7.105 0 0 1-1.194.782c-.423.228-.872.42-1.346.573-.47.154-.95.268-1.439.343l-.283-1.147zm3.19-8.899c-.188 0-.374.075-.558.224-.184.149-.35.337-.497.566-.143.228-.26.476-.352.745-.087.268-.13.52-.13.76.025.242.104.443.237.602.132.16.3.288.505.387.204.1.43.174.68.224.256.044.514.077.774.097.265.015.523.022.773.022h.673c0-.223-.023-.467-.069-.73a5.699 5.699 0 0 0-.49-1.586 3.375 3.375 0 0 0-.42-.67 1.928 1.928 0 0 0-.513-.462 1.126 1.126 0 0 0-.612-.178z" fill="current"></path><path d="M17.623 16.633c.306 0 .615-.01.926-.03.311-.02.602-.062.872-.126.276-.07.52-.167.735-.29.22-.125.393-.294.52-.507a.985.985 0 0 0 .13-.47c.005-.049.008-.096.008-.14 0-.15-.015-.32-.046-.514a5.465 5.465 0 0 0-.153-.67c-.071-.249-.15-.495-.237-.738a9.175 9.175 0 0 0-.268-.715l-.252-.64 1.078-.529c.097.229.2.477.306.745a11.983 11.983 0 0 1 .574 1.69c.077.293.13.581.161.864.015.154.023.305.023.454 0 .124-.01.286-.03.484a1.918 1.918 0 0 1-.184.64 2.317 2.317 0 0 1-.597.797 2.905 2.905 0 0 1-.865.514 4.945 4.945 0 0 1-1.094.268c-.403.05-.829.075-1.278.075h-.329v-1.162zM17.81 11.25l1.116-1.088-1.132-1.102-1.117 1.095 1.132 1.094zM20.059 11.264l1.11-1.087-1.126-1.102-1.117 1.087 1.133 1.102z" fill="current"></path><path fill-rule="evenodd" clip-rule="evenodd" d="M2.97 17.077c.256.214.567.37.934.47.25.082.398.117.572.13.212 0 .238-.004.399-.032l.055-.009v-1.11c-.173 0-.253.001-.332-.008-.079-.008-.157-.027-.327-.066a1.11 1.11 0 0 1-.52-.26 1.116 1.116 0 0 1-.275-.507 3.438 3.438 0 0 1-.077-.797c.005-.377 0-.367 0-.745v-.573c-.009-.962.017.158-.008-.916-.005-.447.005-.578-.015-.99-.02-.412-.037-.675-.068-1.032-.03-.358-.068-.668-.114-.931L2 9.909c.046.333.084.71.106 1.01.03.422.053.871.069 1.348.047 1.449.016.45 0 1.899l.007.841c0 .487.067.901.2 1.244.137.337.333.613.589.826z" fill="current"></path><path d="M7.375 4.726 8.5 3.632 7.375 2.537 6.25 3.632l1.125 1.094z" fill="current"></path></g></symbol><symbol id="i-flash" viewBox="0 0 48 48" ><g stroke="none" fill-rule="evenodd"><path fill-rule="evenodd" clip-rule="evenodd" d="M23.9256 7.77344L16.8054 25.1472H24.1422C25.8838 25.1472 27.1522 26.798 26.7034 28.4808L23.6952 39.7618L40.0036 21.1472H31.3984C29.569 21.1472 28.2896 19.338 28.8992 17.6132C28.9098 17.5835 28.9212 17.5541 28.9336 17.5251L33.0886 7.77344H23.9256ZM22.7096 40.8868C22.7094 40.8868 22.7098 40.8866 22.7096 40.8868V40.8868ZM21.2138 6.47966C21.605 5.4534 22.5898 4.77344 23.6904 4.77344H33.6196C35.449 4.77344 36.7284 6.58268 36.1188 8.30748C36.1082 8.3372 36.0968 8.36658 36.0844 8.39558L31.9294 18.1473H40.774C43.0522 18.1473 44.269 20.8312 42.7678 22.5448L24.9662 42.8636C23.1184 44.9726 19.6887 43.1432 20.4112 40.434L23.6876 28.1472H16.2839C14.4412 28.1472 13.1607 26.3134 13.7954 24.5836C13.8018 24.566 13.8085 24.5486 13.8156 24.5312L21.2138 6.47966Z" fill="current"></path><path fill-rule="evenodd" clip-rule="evenodd" d="M9.36446 28.2628C10.1257 28.5896 10.4777 29.4718 10.1508 30.233L8.35096 34.4236H12.7744C13.2722 34.4236 13.7376 34.6706 14.0167 35.0828C14.2957 35.4952 14.352 36.019 14.1669 36.4812L11.6377 42.7978C11.3298 43.567 10.4567 43.9408 9.6876 43.6328C8.91854 43.325 8.54472 42.4518 8.85266 41.6828L10.558 37.4236H6.07422C5.56981 37.4236 5.09916 37.17 4.82164 36.7488C4.54413 36.3276 4.49691 35.795 4.69597 35.3316L7.39426 29.049C7.72118 28.2878 8.60328 27.9358 9.36446 28.2628Z" fill="current"></path></g></symbol><symbol id="i-store" viewBox="0 0 24 24" stroke-width="0.3"><path fill-rule="evenodd" clip-rule="evenodd" d="M14.245 18.378h-3.646a.75.75 0 0 1 0-1.5h3.646a.75.75 0 0 1 0 1.5Zm1.426-4.7a.324.324 0 0 0-.37 0 4.935 4.935 0 0 1-2.831.902 4.938 4.938 0 0 1-2.833-.903.323.323 0 0 0-.369 0c-.805.56-1.764.903-2.794.903a4.827 4.827 0 0 1-1.833-.368c-.208-.085-.447.06-.447.286v2.132c0 2.901 1.862 4.85 4.632 4.85h7.286c2.772 0 4.634-1.949 4.634-4.85v-2.146c0-.226-.242-.372-.45-.284a4.71 4.71 0 0 1-1.83.38c-1.03 0-1.99-.343-2.796-.903ZM21.048 5.152a2.973 2.973 0 0 0-2.821-2.03H6.699a2.97 2.97 0 0 0-2.825 2.043c-.355 1.086-.903 3.471-.903 4.416 0 1.93 1.57 3.5 3.503 3.5 1.08 0 2.056-.524 2.702-1.321a.375.375 0 0 1 .572.002 3.475 3.475 0 0 0 2.722 1.32c1.103 0 2.08-.52 2.721-1.321a.375.375 0 0 1 .572-.002c.647.797 1.623 1.322 2.704 1.322 1.899 0 3.504-1.603 3.504-3.5 0-.948-.56-3.34-.923-4.429Z" fill="current"></path></symbol><symbol id="i-home" viewBox="0 0 24 24" ><g stroke="none" fill-rule="evenodd"><path d="M12 3 1 12.898h3v9h6v-6h4v6h6v-9h3l-4-3.601V4.898h-2V7.5L12 3zm0 2.688 6 5.402v8.808h-2v-6H8v6H6V11.09l6-5.402z" fill="current" fill-rule="nonzero"></path></g></symbol><symbol id="i-bell" viewBox="0 0 24 24" ><g stroke="none" ><path d="M12.5 2A1.5 1.5 0 0 0 11 3.5v.695A5.997 5.997 0 0 0 6.5 10v6l-2 2v1h6.27a2 2 0 0 0 .316 2.414A2 2 0 0 0 14.5 20a2 2 0 0 0-.271-1H20.5v-1l-2-2v-6A5.997 5.997 0 0 0 14 4.195V3.5A1.5 1.5 0 0 0 12.5 2zm0 4c2.206 0 4 1.794 4 4v6.828l.172.172H8.328l.172-.172V10c0-2.206 1.794-4 4-4z" fill="current"></path></g></symbol><symbol id="i-sort" viewBox="0 0 24 24" ><g stroke="none" fill-rule="evenodd"><path d="M4 3a1 1 0 1 0 0 2 1 1 0 0 0 0-2zm3 0v2h14V3H7zM4 7a1 1 0 1 0 0 2 1 1 0 0 0 0-2zm3 0v2h12V7H7zm-3 4a1 1 0 1 0 0 2 1 1 0 0 0 0-2zm3 0v2h10v-2H7zm-3 4a1 1 0 1 0 0 2 1 1 0 0 0 0-2zm3 0v2h8v-2H7zm-3 4a1 1 0 1 0 0 2 1 1 0 0 0 0-2zm3 0v2h6v-2H7z" fill="current" fill-rule="nonzero"></path></g></symbol><symbol id="i-filter" viewBox="0 0 24 24" ><g stroke="none" fill-rule="evenodd"><path d="M3 3v2h1l5 8v8h6v-8l5-8h1V3H3zm3.36 2h11.283L13 12.426V19h-2v-6.574L6.36 5z" fill="current" fill-rule="nonzero"></path></g></symbol><symbol id="i-thumb" viewBox="0 0 24 24"><path fill-rule="evenodd" clip-rule="evenodd" d="M13.284 2.875h.048c.22.002.483.013.709.06.946.194 1.736.879 2.058 2.077.28 1.04.205 2.444-.322 4.275h.518c.96 0 1.73 0 2.343.053.625.055 1.174.17 1.655.46a3.587 3.587 0 0 1 1.602 2.09c.153.54.122 1.1.012 1.717-.108.606-.308 1.35-.558 2.277l-.491 1.82-.038.14c-.236.876-.409 1.519-.786 2.016-.346.456-.808.81-1.338 1.025-.578.235-1.244.234-2.152.234h-4.459c-.298 0-.518 0-.738-.03a3.176 3.176 0 0 1-.595-.143c-.21-.072-.406-.172-.672-.307a7.228 7.228 0 0 0-.04-.02l-2.468-1.254a.75.75 0 0 1 .679-1.337l2.468 1.253c.322.164.422.212.52.246.103.035.208.06.315.075.104.015.215.017.576.017h4.27c1.116 0 1.46-.014 1.732-.124.28-.114.524-.3.707-.542.177-.233.28-.562.57-1.64l.482-1.785c.262-.97.444-1.65.54-2.184.093-.528.083-.824.021-1.042a2.087 2.087 0 0 0-.932-1.217c-.194-.117-.478-.204-1.012-.25-.54-.048-1.244-.048-2.249-.048H15.19c-.062 0-.15 0-.227-.007a.962.962 0 0 1-.43-.136.95.95 0 0 1-.422-.58.966.966 0 0 1 .002-.454c.018-.076.045-.16.064-.22a.776.776 0 0 0 .004-.013c.639-1.984.668-3.238.47-3.976-.184-.682-.554-.924-.912-.997a2.418 2.418 0 0 0-.414-.028c-.148-.001-.22 0-.276.003a.207.207 0 0 0-.057.009.356.356 0 0 0-.102.061v.002a.63.63 0 0 0-.04.06 6.41 6.41 0 0 0-.167.312c-.438.856-1.185 2.25-1.98 3.438-.396.591-.82 1.158-1.24 1.586-.21.214-.438.412-.677.56-.233.145-.533.278-.875.278a.75.75 0 0 1-.02-1.5.499.499 0 0 0 .103-.051c.102-.064.236-.173.398-.338.324-.33.69-.809 1.064-1.37.746-1.114 1.462-2.447 1.892-3.287l.03-.059c.124-.242.255-.5.466-.705.184-.18.432-.33.675-.41.278-.093.532-.091.765-.09Z" fill="current"></path><path fill-rule="evenodd" clip-rule="evenodd" d="M5.478 7.969h.206c.366 0 .685 0 .948.02.278.023.559.073.83.208.42.21.76.551.97.971.136.272.186.552.208.83.021.263.021.582.021.948v7.199c0 .366 0 .685-.02.948a2.208 2.208 0 0 1-.208.83c-.21.42-.55.76-.97.97a2.206 2.206 0 0 1-.831.208c-.263.021-.582.021-.948.021h-.206c-.367 0-.686 0-.949-.02a2.206 2.206 0 0 1-.83-.209c-.42-.21-.76-.55-.97-.97a2.208 2.208 0 0 1-.208-.83c-.021-.263-.021-.582-.021-.948v-7.199c0-.366 0-.685.021-.948.022-.278.072-.558.208-.83.21-.42.55-.76.97-.97.272-.136.552-.186.83-.208.263-.021.582-.021.949-.021ZM4.65 9.485c-.188.015-.252.04-.28.054a.669.669 0 0 0-.3.3c-.013.027-.039.092-.054.28-.015.195-.016.453-.016.856v7.141c0 .403 0 .661.016.857.015.187.04.252.055.28.064.129.17.234.299.299.028.014.092.039.28.054.195.016.453.016.856.016h.15c.402 0 .66 0 .856-.016.187-.015.252-.04.28-.054a.668.668 0 0 0 .299-.3c.014-.027.04-.092.054-.28.016-.195.016-.453.016-.856v-7.141c0-.403 0-.661-.016-.857-.015-.187-.04-.252-.054-.28a.669.669 0 0 0-.3-.299c-.027-.014-.092-.039-.28-.054a12.031 12.031 0 0 0-.855-.016h-.15c-.403 0-.66 0-.856.016Z" fill="current"></path></symbol><symbol id="i-cart2" viewBox="0 0 24 24" ><g stroke="none" fill-rule="evenodd"><path d="M7.95009 17.1211C7.32295 17.1174 6.71986 16.8794 6.25917 16.4539C5.79849 16.0283 5.51348 15.446 5.4601 14.8211L4.57106 4.2361L3.11806 3.9851C3.02101 3.96829 2.92828 3.93253 2.84505 3.87986C2.76182 3.82719 2.68975 3.75865 2.63302 3.67814C2.57628 3.59763 2.53597 3.50674 2.51436 3.41064C2.49275 3.31455 2.49029 3.21514 2.5071 3.1181C2.52391 3.02105 2.55966 2.92826 2.61232 2.84504C2.66499 2.76181 2.73354 2.68977 2.81405 2.63304C2.89455 2.5763 2.98547 2.53598 3.08156 2.51437C3.17765 2.49276 3.27706 2.49029 3.3741 2.5071L5.39809 2.8571C5.56164 2.88553 5.71112 2.96741 5.82314 3.08993C5.93516 3.21244 6.0034 3.36866 6.01711 3.5341L6.25008 6.2441C20.1261 6.2441 20.1691 6.2551 20.2391 6.2651C20.7786 6.34305 21.2651 6.63208 21.5916 7.06863C21.9181 7.50519 22.0578 8.05353 21.9801 8.5931L21.0561 14.9741C20.969 15.569 20.6712 16.1129 20.217 16.5069C19.7628 16.9009 19.1823 17.1188 18.5811 17.1211H7.95009ZM6.37105 7.7451L6.95406 14.7001C6.97577 14.9507 7.09044 15.1841 7.27547 15.3546C7.4605 15.525 7.70251 15.62 7.95406 15.6211H18.5761C18.8175 15.6215 19.051 15.5346 19.2333 15.3763C19.4156 15.2181 19.5345 14.9992 19.5681 14.7601L20.4921 8.3781C20.5036 8.30638 20.5007 8.23309 20.4835 8.16252C20.4663 8.09195 20.4353 8.02551 20.3921 7.9671C20.3484 7.90863 20.2935 7.85937 20.2307 7.82213C20.1679 7.78489 20.0984 7.76041 20.0261 7.7501L6.37105 7.7451Z" fill="current"></path><path d="M17.0164 11.3359H14.3164C14.1175 11.3359 13.9267 11.2569 13.7861 11.1163C13.6454 10.9756 13.5664 10.7848 13.5664 10.5859C13.5664 10.387 13.6454 10.1963 13.7861 10.0556C13.9267 9.91495 14.1175 9.83594 14.3164 9.83594H17.0164C17.2153 9.83594 17.4061 9.91495 17.5468 10.0556C17.6874 10.1963 17.7664 10.387 17.7664 10.5859C17.7664 10.7848 17.6874 10.9756 17.5468 11.1163C17.4061 11.2569 17.2153 11.3359 17.0164 11.3359Z" fill="current"></path><path d="M7.53959 21.5011C8.21946 21.5011 8.77059 20.9499 8.77059 20.2701C8.77059 19.5902 8.21946 19.0391 7.53959 19.0391C6.85973 19.0391 6.30859 19.5902 6.30859 20.2701C6.30859 20.9499 6.85973 21.5011 7.53959 21.5011Z" fill="current"></path><path d="M18.564 21.5031C18.3203 21.5031 18.0821 21.4308 17.8795 21.2954C17.6768 21.1599 17.5189 20.9675 17.4257 20.7423C17.3325 20.5171 17.3082 20.2694 17.3558 20.0303C17.4034 19.7913 17.5208 19.5718 17.6932 19.3996C17.8656 19.2273 18.0853 19.11 18.3243 19.0626C18.5634 19.0152 18.8111 19.0397 19.0362 19.1331C19.2613 19.2265 19.4537 19.3846 19.5889 19.5873C19.7242 19.7901 19.7963 20.0284 19.7961 20.2721C19.7958 20.5986 19.6659 20.9117 19.4349 21.1426C19.2039 21.3734 18.8906 21.5031 18.564 21.5031Z" fill="current"></path></g></symbol><symbol id="i-handcart" viewBox="0 0 40 40" ><g stroke="none" fill-rule="evenodd"><path d="M27.4576 3.34978C27.0238 3.31121 26.5775 3.35855 26.1425 3.50277H26.1392L16.6503 6.42269L16.634 6.42921C14.9283 6.99448 13.969 8.86868 14.5084 10.5829L16.7382 18.1382L16.7415 18.1512C17.2932 19.8989 19.2137 20.8817 20.9537 20.3062L20.9211 20.3192L30.4459 17.3862L30.4654 17.3797C32.1711 16.8145 33.1307 14.9408 32.5878 13.2261L30.3612 5.67725L30.3547 5.66423C29.9452 4.34875 28.759 3.46548 27.4576 3.34978ZM9.16659 4.75277L2.82544 6.78077L3.84106 9.9546L6.99536 8.94874L12.0019 24.8374C12.8258 27.453 15.6602 28.9259 18.2747 28.1024L36.481 22.3765L35.4784 19.1961L17.2721 24.922C16.3732 25.2052 15.465 24.7325 15.1822 23.8348L9.16659 4.75277ZM27.1809 6.67009L29.4042 14.2157V14.2189L19.925 17.1388H19.9218L17.692 9.59652V9.59327L20.9114 8.60043L21.8684 11.644L25.0487 10.6414L24.095 7.62061L27.1744 6.67335L27.1809 6.67009ZM18.33 30.0034C17.8923 30.0034 17.4588 30.0896 17.0544 30.2572C16.65 30.4247 16.2825 30.6702 15.973 30.9797C15.6634 31.2893 15.4179 31.6567 15.2504 32.0611C15.0829 32.4656 14.9967 32.899 14.9967 33.3368C14.9967 33.7745 15.0829 34.208 15.2504 34.6124C15.4179 35.0168 15.6634 35.3843 15.973 35.6938C16.2825 36.0033 16.65 36.2488 17.0544 36.4164C17.4588 36.5839 17.8923 36.6701 18.33 36.6701C19.2141 36.6701 20.0619 36.3189 20.687 35.6938C21.3121 35.0687 21.6633 34.2208 21.6633 33.3368C21.6633 32.4527 21.3121 31.6049 20.687 30.9797C20.0619 30.3546 19.2141 30.0034 18.33 30.0034Z" fill="current"></path></g></symbol><symbol id="i-trolley" viewBox="0 0 24 24" stroke="none"><path d="M6 1.99609L2.00391 2.01367L2.01367 4.01367L4 4.00391V14C4 15.645 5.35503 17 7 17H21V15H7C6.43497 15 6 14.565 6 14V1.99609ZM10 3V7H8V13H19V9H20V3H10ZM12 5H18V7H12V5ZM10 9H17V11H10V9ZM8 18C7.46957 18 6.96086 18.2107 6.58579 18.5858C6.21071 18.9609 6 19.4696 6 20C6 20.5304 6.21071 21.0391 6.58579 21.4142C6.96086 21.7893 7.46957 22 8 22C8.53043 22 9.03914 21.7893 9.41421 21.4142C9.78929 21.0391 10 20.5304 10 20C10 19.4696 9.78929 18.9609 9.41421 18.5858C9.03914 18.2107 8.53043 18 8 18ZM18 18C17.4696 18 16.9609 18.2107 16.5858 18.5858C16.2107 18.9609 16 19.4696 16 20C16 20.5304 16.2107 21.0391 16.5858 21.4142C16.9609 21.7893 17.4696 22 18 22C18.5304 22 19.0391 21.7893 19.4142 21.4142C19.7893 21.0391 20 20.5304 20 20C20 19.4696 19.7893 18.9609 19.4142 18.5858C19.0391 18.2107 18.5304 18 18 18Z" fill="current"></path></symbol><symbol id="i-transit" viewBox="0 0 16 16" ><g stroke="none" ><path d="M0 3.333v1.334h9.333v6H5.48A1.987 1.987 0 0 0 4 10c-.59 0-1.114.26-1.48.667H2V10l1.333-1.333H.667V12H2a2 2 0 1 0 4 0h4a2 2 0 1 0 4 0H15.333V8.667l-1.816-3.632a.664.664 0 0 0-.595-.368h-2.255V3.333H0zM.667 6v1.333h4.666V6H.667zm10 0h1.842l.667 1.333h-2.51V6zm0 2.667h3.175l.158.315v1.685h-.52A1.987 1.987 0 0 0 12 10c-.515 0-.979.2-1.333.52V8.667zM4 11.167a.834.834 0 0 1 0 1.666.835.835 0 0 1 0-1.666zm8 0a.834.834 0 0 1 0 1.666.835.835 0 0 1 0-1.666z" fill="current"></path></g><defs stroke="none" fill="none"><clipPath><path d="M0 0h16v16H0z"></path></clipPath></defs></symbol><symbol id="i-cat-art" viewBox="0 0 24 24" ><g stroke="none" fill-rule="evenodd"><path d="M3 0h18a3 3 0 0 1 3 3v18a3 3 0 0 1-3 3H3a3 3 0 0 1-3-3V3a3 3 0 0 1 3-3z" fill="none"></path><path d="M6 2c-1.105 0-2 .895-2 2v16c0 1.105.895 2 2 2h12c1.105 0 2-.895 2-2V4c0-1.105-.895-2-2-2H6zm0 2h2v8l3-1.5 3 1.5V4h4v16H6V4zm4 0h2v4.766l-.105-.055L11 8.266l-.895.445-.105.055V4z" fill="current" fill-rule="nonzero"></path></g></symbol><symbol id="i-cat-baby" viewBox="0 0 24 24" ><g><path d="M12 3V10H6.28711C6.10665 9.57484 5.82979 9.01338 5.35156 8.37891C4.52155 7.27773 3.07207 6.08008 1.00391 6.08008V8.08008C2.32475 8.08008 3.15412 8.78371 3.75586 9.58203C4.29493 10.2972 4.51717 10.9299 4.56445 11.0703C4.59065 13.6001 6.01049 15.8069 8.09375 17.0039C8.06253 17.0019 8.03128 17.0006 8 17C7.46957 17 6.96086 17.2107 6.58579 17.5858C6.21071 17.9609 6 18.4696 6 19C6 19.5304 6.21071 20.0391 6.58579 20.4142C6.96086 20.7893 7.46957 21 8 21C8.53043 21 9.03914 20.7893 9.41421 20.4142C9.78929 20.0391 10 19.5304 10 19C9.99943 18.476 9.79325 17.9732 9.42578 17.5996C10.1245 17.8283 10.8682 17.957 11.6406 17.957H13.9199C14.4293 17.957 14.926 17.8991 15.4062 17.7969C15.1437 18.1431 15.0011 18.5655 15 19C15 19.5304 15.2107 20.0391 15.5858 20.4142C15.9609 20.7893 16.4696 21 17 21C17.5304 21 18.0391 20.7893 18.4142 20.4142C18.7893 20.0391 19 19.5304 19 19C19.0001 18.5397 18.8414 18.0935 18.5507 17.7366C18.26 17.3797 17.8551 17.1341 17.4043 17.041C19.5417 15.8417 21 13.585 21 11V10C21 10 21.0095 8.24672 19.9883 6.49609C18.9671 4.74546 16.7857 3 13 3H12ZM14 5.10352C16.4422 5.35319 17.6207 6.40498 18.2617 7.50391C18.9905 8.75328 19 10 19 10H14V5.10352ZM6.76758 12H18.793C18.3046 14.2315 16.364 15.957 13.9199 15.957H11.6406C9.19656 15.957 7.25593 14.2315 6.76758 12Z" fill="current" stroke="none"></path></g></symbol><symbol id="i-cat-beauty" viewBox="0 0 24 24" ><g stroke="none" fill-rule="evenodd"><path d="M3 0h18a3 3 0 0 1 3 3v18a3 3 0 0 1-3 3H3a3 3 0 0 1-3-3V3a3 3 0 0 1 3-3z" fill="none"></path><path d="M9 3c-.55 0-1 .45-1 1v4H4c-.55 0-1 .45-1 1v12c0 .55.45 1 1 1h16c.55 0 1-.45 1-1V9c0-.55-.45-1-1-1h-4V4c0-.55-.45-1-1-1H9zm1 2h4v3h-4V5zm-5 5h14v4h-3v-1c0-.55-.45-1-1-1H9c-.55 0-1 .45-1 1v1H5v-4zm5 4h4v2h-4v-2zm-5 2h3v1c0 .55.45 1 1 1h6c.55 0 1-.45 1-1v-1h3v4H5v-4z" fill="current" fill-rule="nonzero"></path></g></symbol><symbol id="i-cat-digital" viewBox="0 0 24 24" ><g stroke="none" fill-rule="evenodd"><path d="M3 0h18a3 3 0 0 1 3 3v18a3 3 0 0 1-3 3H3a3 3 0 0 1-3-3V3a3 3 0 0 1 3-3z" fill="none"></path><path d="M4 4c-1.102 0-2 .898-2 2v10c0 1.102.898 2 2 2H0v2h24v-2h-4c1.102 0 2-.898 2-2V6c0-1.102-.898-2-2-2H4zm0 2h16v10H4V6z" fill="current" fill-rule="nonzero"></path></g></symbol><symbol id="i-cat-fashion" viewBox="0 0 24 24" ><g stroke="none" fill-rule="evenodd"><path d="M3 0h18a3 3 0 0 1 3 3v18a3 3 0 0 1-3 3H3a3 3 0 0 1-3-3V3a3 3 0 0 1 3-3z" fill="none"></path><path d="M16.023 5.027c.399.055.786.192 1.137.403l2.602 1.558L19.359 9H17v10H7V9H4.64l-.402-2.012L6.844 5.43c.347-.211.734-.348 1.133-.403C8.82 6.012 10.184 7 12 7c1.816 0 3.18-.988 4.023-1.973M15.613 3H15s-1 2-3 2-3-2-3-2h-.613c-.907 0-1.797.246-2.575.715L2 6l1 5h2v10h14V11h2l1-5-3.813-2.285A4.985 4.985 0 0 0 15.614 3z" fill="current" fill-rule="nonzero"></path></g></symbol><symbol id="i-cat-home" viewBox="0 0 24 24" ><g stroke="none" fill-rule="evenodd"><path d="M3 0h18a3 3 0 0 1 3 3v18a3 3 0 0 1-3 3H3a3 3 0 0 1-3-3V3a3 3 0 0 1 3-3z" fill="none"></path><path d="M11.473 4a1.497 1.497 0 0 0-1.36 2.125 8.227 8.227 0 0 0-4.05 1.96A3.533 3.533 0 0 0 3.5 7 3.514 3.514 0 0 0 0 10.5a3.51 3.51 0 0 0 3.04 3.469c-.04.34-.063.683-.063 1.031 0 1.61.277 2.98 1.3 3.875C5.301 19.773 6.734 20 8.676 20h5.601c1.985 0 3.422-.223 4.442-1.129.652-.586.968-1.375 1.12-2.281C22.286 14.754 24 11.262 24 8V7h-2.414l-.293.293c-.648.648-2.121 1.426-3.574 1.644-1.262-1.457-2.965-2.476-4.883-2.808A1.498 1.498 0 0 0 11.473 4zm0 4c1.199 0 2.332.371 3.308 1H8.168c.977-.629 2.11-1 3.305-1zM3.5 9c.5 0 .95.262 1.203.602A9.354 9.354 0 0 0 3.47 12.02a1.204 1.204 0 0 0-.117-.016C2.637 11.934 2 11.214 2 10.5A1.5 1.5 0 0 1 3.5 9zm18.309.297c-.29 1.555-1.024 3.18-1.934 4.406a9.323 9.323 0 0 0-.934-2.98c1.09-.305 2.059-.832 2.868-1.426zM6.16 11h10.63a7.277 7.277 0 0 1 1.183 4c0 1.398-.203 2.035-.586 2.379-.387.344-1.301.621-3.11.621H8.676c-1.762 0-2.676-.273-3.078-.625-.403-.355-.621-.984-.621-2.375 0-1.492.441-2.867 1.183-4z" fill="current" fill-rule="nonzero"></path></g></symbol><symbol id="i-cat-sport" viewBox="0 0 24 24" ><g stroke="none" fill-rule="evenodd"><path d="M3 0h18a3 3 0 0 1 3 3v18a3 3 0 0 1-3 3H3a3 3 0 0 1-3-3V3a3 3 0 0 1 3-3z" fill="none"></path><path d="M19 3c-1.5 0-2.582.938-3.68 1.668C14.223 5.398 13.168 6 12 6H7s-.457-.016-.945.23C5.563 6.477 5 7.168 5 8c0 0-.016.457.23.945.204.407.75.793 1.395.938-.07.105-.05.23-.148.336-.344.383-.872.734-1.422 1.011-1.11.555-2.25.79-2.25.79L2 12.18V13c0 1.926 1.098 3.777 2.305 5.258.605.742 1.25 1.379 1.867 1.863.621.48 1.14.879 1.976.879 1.891 0 3.309-1.246 4.254-2.348.852-.996 1.246-1.797 1.344-1.984 2.156-2.336 4.063-3.52 5.598-4.871C20.883 10.44 22 8.734 22 6c0 0 .016-.707-.355-1.445C21.273 3.813 20.332 3 19 3zm0 2c.668 0 .727.188.855.445.13.262.145.555.145.555 0 2.266-.637 3.121-1.977 4.297-1.34 1.176-3.425 2.496-5.757 5.027l-.098.102-.063.125s-.453.902-1.218 1.797C10.117 18.246 9.105 19 8.148 19c.176 0-.28-.102-.75-.465-.468-.36-1.027-.91-1.546-1.543-.864-1.058-1.461-2.32-1.672-3.355.511-.137.87-.168 1.765-.617.7-.348 1.422-.81 2.016-1.457C8.55 10.913 9 10.027 9 9V8h2v2h2V7.898a6.25 6.25 0 0 0 1-.257V9h2V6.605c.14-.09.297-.183.43-.273C17.582 5.562 18.5 5 19 5z" fill="current" fill-rule="nonzero"></path></g></symbol><symbol id="i-cat-tools" viewBox="0 0 24 24" ><g stroke="none" fill-rule="evenodd"><path d="M3 0h18a3 3 0 0 1 3 3v18a3 3 0 0 1-3 3H3a3 3 0 0 1-3-3V3a3 3 0 0 1 3-3z" fill="none"></path><path d="M5 3 3 5l1.406 2.11c.371.558.996.89 1.664.89h.516l3.539 3.535-5.637 5.637a1.667 1.667 0 0 0 0 2.36l.98.98a1.669 1.669 0 0 0 2.36 0L12.5 15.84l4.672 4.672a1.669 1.669 0 0 0 2.36 0l.98-.98a1.674 1.674 0 0 0 0-2.36L15.84 12.5l1.562-1.563c.196.032.395.063.598.063 2.21 0 4-1.79 4-4 0-.586-.133-1.14-.36-1.64l-1.413 1.413-1.555-.445-.445-1.555L19.64 3.36A3.967 3.967 0 0 0 18 3c-2.21 0-4 1.79-4 4 0 .203.031.402.063.602l-2.528 2.523L8 6.585V6.07c0-.668-.332-1.293-.89-1.664L5 3zm11.691 1.867.09.32.45 1.555.226.801.8.23 1.555.446.317.09A2.496 2.496 0 0 1 18 9.5c-.086 0-.219-.02-.375-.043l-.75-.113-2.094 2.094-.011-.008-3.34 3.34.008.011L6.77 19.45a.171.171 0 0 1-.122.051.162.162 0 0 1-.117-.05l-.98-.977a.172.172 0 0 1 0-.243l9.57-9.57.535-.55-.113-.75A2.57 2.57 0 0 1 15.5 7c0-.898.477-1.691 1.191-2.133zm-1.91 8.696 4.672 4.667a.175.175 0 0 1 0 .239l-.98.98a.165.165 0 0 1-.238 0l-4.672-4.668 1.218-1.219z" fill="current" fill-rule="nonzero"></path></g></symbol><symbol id="i-cat-mobile" viewBox="0 0 24 24" ><g stroke="none" fill-rule="evenodd"><path d="M19 20.5v-17C19 2.121 17.879 1 16.5 1h-9A2.502 2.502 0 0 0 5 3.5v17C5 21.879 6.121 23 7.5 23h9c1.379 0 2.5-1.121 2.5-2.5zm-2 .5H7V3h1.625l.723 1.445c.172.34.515.555.894.555h3.473a.998.998 0 0 0 .894-.555L15.332 3H17v18z" fill="current" fill-rule="nonzero"></path></g></symbol><symbol id="i-cat-car" viewBox="0 0 24 24" ><g stroke="none" fill-rule="evenodd"><path d="M6.4707 4C5.8307 4 5.25973 4.40767 5.05273 5.01367L3 11V18V19C3 19.552 3.448 20 4 20H5C5.552 20 6 19.552 6 19V18H18V19C18 19.552 18.448 20 19 20H20C20.552 20 21 19.552 21 19V17V11L18.9473 5.01367C18.7403 4.40767 18.1693 4 17.5293 4H6.4707ZM6.82812 6H17.1719L18.2012 9H5.79883L6.82812 6ZM5.11328 11H18.8867L19 11.332V16H5V11.332L5.11328 11ZM7.5 12C7.10218 12 6.72064 12.158 6.43934 12.4393C6.15804 12.7206 6 13.1022 6 13.5C6 13.8978 6.15804 14.2794 6.43934 14.5607C6.72064 14.842 7.10218 15 7.5 15C7.89782 15 8.27936 14.842 8.56066 14.5607C8.84196 14.2794 9 13.8978 9 13.5C9 13.1022 8.84196 12.7206 8.56066 12.4393C8.27936 12.158 7.89782 12 7.5 12ZM16.5 12C16.1022 12 15.7206 12.158 15.4393 12.4393C15.158 12.7206 15 13.1022 15 13.5C15 13.8978 15.158 14.2794 15.4393 14.5607C15.7206 14.842 16.1022 15 16.5 15C16.8978 15 17.2794 14.842 17.5607 14.5607C17.842 14.2794 18 13.8978 18 13.5C18 13.1022 17.842 12.7206 17.5607 12.4393C17.2794 12.158 16.8978 12 16.5 12Z" fill="current"></path></g></symbol><symbol id="i-cat-motor" viewBox="0 0 24 24" ><g stroke="none"><path d="M7.0999 19.7C5.3999 19.7 3.9999 18.3 3.9999 16.6C3.9999 16.5 3.9999 16.4 3.9999 16.3C4.0999 15.9 4.3999 15.6 4.7999 15.7C5.1999 15.8 5.4999 16.1 5.3999 16.5C5.3999 17.5 6.1999 18.2 7.0999 18.2C7.9999 18.2 8.7999 17.4 8.7999 16.5C8.6999 16.1 8.9999 15.7 9.3999 15.7C9.7999 15.6 10.1999 15.9 10.1999 16.3C10.1999 16.4 10.1999 16.5 10.1999 16.6C10.2999 18.3 8.8999 19.7 7.0999 19.7Z" fill="current"></path><path d="M18.8999 10.9C17.7999 10.9 16.6999 10.3 16.3999 9.19999C16.2999 8.59999 16.3999 7.89999 16.7999 7.29999C17.1999 6.79999 17.7999 6.39999 18.2999 6.29999C18.4999 6.19999 18.7999 6.29999 18.9999 6.49999C20.0999 7.59999 20.3999 8.89999 19.8999 10.4C19.7999 10.6 19.5999 10.8 19.3999 10.9C19.2999 10.9 19.0999 10.9 18.8999 10.9ZM18.3999 7.89999C18.1999 7.99999 18.0999 8.09999 17.9999 8.19999C17.7999 8.39999 17.7999 8.69999 17.7999 8.89999C17.8999 9.19999 18.2999 9.49999 18.6999 9.49999C18.7999 8.89999 18.6999 8.39999 18.3999 7.89999Z" fill="current"></path><path d="M17.2999 19.7C15.5999 19.7 14.1999 18.3 14.1999 16.6C14.1999 16.2 14.4999 15.9 14.8999 15.9C15.2999 15.9 15.5999 16.2 15.5999 16.6C15.5999 17.5 16.3999 18.3 17.2999 18.3C18.1999 18.3 18.9999 17.5 18.9999 16.6C18.9999 15.8 18.3999 15.1 17.5999 14.9C17.1999 14.8 16.8999 14.5 16.9999 14.1C17.0999 13.7 17.3999 13.4 17.7999 13.5C19.2999 13.7 20.4999 15.1 20.4999 16.6C20.3999 18.3 18.9999 19.7 17.2999 19.7Z" fill="current"></path><path d="M14.7999 17.1H3.0999C2.6999 17.1 2.3999 16.8 2.3999 16.4V14C2.3999 11.9 4.0999 10.2 6.1999 10.2H7.9999C9.0999 10.2 9.9999 10.8 10.4999 11.7L11.0999 13C11.1999 13.3 11.4999 13.4 11.7999 13.4H12.6999C12.8999 13.4 13.0999 13.2 13.1999 13L13.0999 8.89999C13.0999 8.29999 13.2999 7.79999 13.6999 7.39999C14.0999 6.99999 14.5999 6.79999 15.0999 6.79999L14.7999 5.99999C14.7999 5.89999 14.5999 5.79999 14.3999 5.79999H12.3999C11.9999 5.79999 11.6999 5.49999 11.6999 5.09999C11.6999 4.69999 11.9999 4.39999 12.3999 4.39999H14.3999C15.0999 4.39999 15.7999 4.89999 16.0999 5.49999L18.9999 12.5C19.2999 13.2 19.0999 14 18.5999 14.4L15.9999 16.7C15.5999 17 15.1999 17.1 14.7999 17.1ZM3.7999 15.7H14.7999C14.8999 15.7 14.8999 15.7 14.9999 15.6L17.5999 13.2C17.6999 13.1 17.6999 13 17.6999 12.9L15.7999 8.09999H15.2999C15.0999 8.09999 14.9999 8.19999 14.7999 8.29999C14.6999 8.39999 14.5999 8.59999 14.5999 8.79999L14.6999 13C14.5999 14.1 13.7999 14.8 12.7999 14.8H11.8999C10.9999 14.8 10.2999 14.3 9.8999 13.6L9.2999 12.3C8.9999 11.9 8.4999 11.6 7.9999 11.6H6.1999C4.8999 11.6 3.7999 12.7 3.7999 14V15.7Z" fill="current"></path><path d="M20.3999 14.6C20.1999 14.6 19.8999 14.5 19.7999 14.3C19.3999 13.7 18.4999 13.6 18.4999 13.6C18.0999 13.6 17.7999 13.2 17.8999 12.8C17.9999 12.4 18.2999 12.1 18.6999 12.2C18.7999 12.2 20.2999 12.4 21.0999 13.6C21.2999 13.9 21.1999 14.4 20.8999 14.6C20.6999 14.6 20.4999 14.6 20.3999 14.6Z" fill="current"></path><path d="M17.2999 17.3C17.0999 17.3 16.8999 17.2 16.7999 17.1L15.7999 15.9C15.4999 15.6 15.5999 15.1 15.8999 14.9C16.1999 14.6 16.6999 14.7 16.8999 15L17.8999 16.2C18.1999 16.5 18.0999 17 17.7999 17.2C17.5999 17.3 17.3999 17.3 17.2999 17.3Z" fill="current"></path><path d="M8.0999 8.99999H5.3999C4.9999 8.99999 4.5999 8.59999 4.5999 8.19999C4.5999 7.79999 4.9999 7.49999 5.3999 7.49999H8.0999C8.4999 7.49999 8.7999 7.79999 8.7999 8.19999C8.7999 8.59999 8.4999 8.99999 8.0999 8.99999Z" fill="current"></path></g></symbol><symbol id="i-cat-jeep" viewBox="0 0 32 32" ><g stroke="none" fill-rule="evenodd"><path d="M2.66665 5.33325C2.31304 5.33329 1.97392 5.47377 1.72388 5.72382C1.47384 5.97386 1.33335 6.31297 1.33331 6.66659V22.6666C1.33335 23.0202 1.47384 23.3593 1.72388 23.6094C1.97392 23.8594 2.31304 23.9999 2.66665 23.9999H2.73435C3.06422 26.2471 5.00007 27.9999 7.33331 27.9999C9.66656 27.9999 11.6024 26.2471 11.9323 23.9999H18.7344C19.0642 26.2471 21.0001 27.9999 23.3333 27.9999C25.8377 27.9999 27.8908 25.9836 27.9818 23.4999L29.9297 22.526C30.1511 22.4152 30.3374 22.2449 30.4676 22.0343C30.5977 21.8236 30.6667 21.5809 30.6666 21.3333V16.8541C30.6666 14.9557 29.3124 13.3046 27.4505 12.9322L23.5078 12.1405L20.9765 7.9244C20.0138 6.31867 18.2727 5.33325 16.401 5.33325H2.66665ZM3.99998 7.99992H9.33331V11.9999H3.99998V7.99992ZM12 7.99992H16.401C17.34 7.99992 18.2049 8.48925 18.6875 9.29419L20.3125 11.9999H12V7.99992ZM3.99998 14.6666H22.5364L26.9271 15.5468C27.5585 15.6731 28 16.2111 28 16.8541V20.5103L27.276 20.8723C26.4476 19.5554 24.9914 18.6666 23.3333 18.6666C21.4891 18.6666 19.8964 19.7662 19.1406 21.3333H11.526C10.7702 19.7662 9.17752 18.6666 7.33331 18.6666C6.03077 18.6666 4.84971 19.214 3.99998 20.0859V14.6666ZM7.33331 21.3333C8.45368 21.3333 9.33331 22.2129 9.33331 23.3333C9.33331 24.4536 8.45368 25.3333 7.33331 25.3333C6.21295 25.3333 5.33331 24.4536 5.33331 23.3333C5.33331 22.2129 6.21295 21.3333 7.33331 21.3333ZM23.3333 21.3333C24.4537 21.3333 25.3333 22.2129 25.3333 23.3333C25.3333 24.4536 24.4537 25.3333 23.3333 25.3333C22.213 25.3333 21.3333 24.4536 21.3333 23.3333C21.3333 22.2129 22.213 21.3333 23.3333 21.3333Z" fill="current"></path></g></symbol><symbol id="i-cat-scooter" viewBox="0 0 32 32" ><g stroke="none" fill-rule="evenodd"><path d="M23.3333 4C22.2293 4 21.3333 4.896 21.3333 6C21.3333 6.23483 21.3813 6.45728 21.4557 6.66667H18.6666V9.33333H21.7422L22.0234 10.0807L16.8281 14.6667H13.3333V12H16V9.33333H2.66665V12H4.64581C4.36671 12.3501 4.03651 12.7335 3.65102 13.1875C2.6015 14.4237 1.33331 16.1789 1.33331 18.6667C1.33338 19.0203 1.47389 19.3594 1.72394 19.6094L1.93488 19.8203C1.58363 20.4755 1.36456 21.2103 1.36456 22C1.36456 24.5581 3.45943 26.6667 6.0156 26.6667C8.3439 26.6667 10.2706 24.9117 10.5989 22.6667H21.4323C21.7607 24.9117 23.6873 26.6667 26.0156 26.6667C28.5718 26.6667 30.6666 24.5581 30.6666 22C30.6666 20.043 29.4368 18.3573 27.7161 17.6693L27.5911 17.3333H30.6666V14.6667H26.5911L24.0911 8H26.6666V4H23.3333ZM7.74738 12H10.6666V14.6667C10.6666 15.3135 10.7505 16.063 11.3437 16.6563C11.9369 17.2495 12.6865 17.3333 13.3333 17.3333H17.3333C17.6584 17.3335 17.9723 17.215 18.2161 17L23.026 12.7552L24.8099 17.5156C23.499 17.8748 22.4224 18.7983 21.8385 20H10.1953C9.44243 18.4342 7.85523 17.3333 6.0156 17.3333C5.37449 17.3333 4.76301 17.4666 4.20571 17.7057C4.42804 16.6317 4.95047 15.776 5.68227 14.9141C6.15751 14.3543 6.68409 13.7982 7.1406 13.1354C7.37208 12.7993 7.58901 12.4191 7.74738 12ZM6.0156 20C7.12365 20 7.99998 20.8762 7.99998 22C7.99998 23.1238 7.12365 24 6.0156 24C4.90755 24 4.03123 23.1238 4.03123 22C4.03123 20.8762 4.90755 20 6.0156 20ZM26.0156 20C27.1237 20 28 20.8762 28 22C28 23.1238 27.1237 24 26.0156 24C24.9076 24 24.0312 23.1238 24.0312 22C24.0312 20.8762 24.9076 20 26.0156 20Z" fill="current"></path></g></symbol><symbol id="i-cat-bike" viewBox="0 0 24 24" fill="none"><g><path d="M11.642 2C6.318 2 2 6.407 2 11.795c0 1.8.149 2.581.583 4.337a1.054 1.054 0 0 0 .672.74l14.338 5.069a1.05 1.05 0 0 0 1.163-.328l2.98-3.647c.125-.154.205-.34.23-.539 0 0 .004-.16 0-.421a1.056 1.056 0 0 0-.034-.64c-.005-.074-.002-.101-.01-.183-.076-.84-.25-2.239-.65-4.566-.439-2.541-1.465-4.91-3.085-6.686C16.567 3.156 14.309 2 11.642 2zm0 2.106c2.079 0 3.707.838 4.992 2.247a9.287 9.287 0 0 1 1.347 1.956h-7.57c-.034 0-.07 0-.104.004h-.002a2.101 2.101 0 0 0-1.996 2.102 2.109 2.109 0 0 0 1.645 2.055c.653.62 4.105 3.73 9.45 5.023l-1.807 2.216-13.044-4.612c-.295-1.221-.45-1.835-.45-3.302 0-4.269 3.37-7.689 7.539-7.689zm.873 6.31h6.316c.151.504.276 1.024.368 1.558.276 1.601.416 2.621.513 3.423-3.527-.896-6.196-2.728-7.553-3.813a2.11 2.11 0 0 0 .355-1.169z" fill="current"></path></g></symbol><symbol id="i-cat-helmet" viewBox="0 0 20 20" stroke="none"><path d="M9.64175 0C4.31844 0 0 4.40672 0 9.79543C0 11.5944 0.148846 12.3764 0.583229 14.1316C0.625103 14.3011 0.708399 14.4575 0.825622 14.5868C0.942845 14.7161 1.09032 14.8141 1.25476 14.8721L15.5931 19.9405C15.797 20.0122 16.0179 20.0193 16.2259 19.9607C16.4338 19.9022 16.6188 19.781 16.7555 19.6135L19.7353 15.9664C19.8613 15.8122 19.9411 15.6253 19.9653 15.4275C19.9653 15.4275 19.9697 15.2663 19.9653 15.0058C20.0209 14.7943 20.0094 14.5707 19.9325 14.3661C19.927 14.2924 19.9296 14.265 19.9222 14.183C19.8462 13.3429 19.6719 11.9441 19.2712 9.61647C18.8331 7.07588 17.8065 4.7066 16.1866 2.93122C14.5668 1.15584 12.3092 0 9.64175 0ZM9.64175 2.10637C11.7205 2.10637 13.3491 2.94422 14.6341 4.35261C15.1489 4.9168 15.5989 5.57854 15.9813 6.30881H8.41163C8.37668 6.30844 8.34172 6.30981 8.3069 6.31293C8.30622 6.31293 8.30553 6.31293 8.30485 6.31293C7.76654 6.34034 7.2593 6.57375 6.88785 6.96495C6.51639 7.35616 6.30908 7.8753 6.30873 8.41518C6.30892 8.89397 6.47196 9.35841 6.77098 9.73195C7.07 10.1055 7.48714 10.3659 7.95368 10.4701C8.60665 11.0908 12.0595 14.1998 17.4044 15.4933L15.5973 17.7087L2.55265 13.0969C2.25839 11.876 2.10291 11.2624 2.10291 9.79543C2.10291 5.52644 5.47254 2.10637 9.64175 2.10637ZM10.5145 8.41518H16.8233C16.826 8.41519 16.8287 8.41519 16.8315 8.41518C16.9822 8.91971 17.107 9.44036 17.1991 9.97439C17.4747 11.5755 17.6148 12.5955 17.7125 13.3972C14.1852 12.5012 11.5159 10.6694 10.1593 9.58356C10.3903 9.23779 10.5139 8.83124 10.5145 8.41518Z" fill="current"></path></symbol><symbol id="i-cat-classroom" viewBox="0 0 24 24" ><g stroke="none" fill-rule="evenodd"><path d="M6 3a1.999 1.999 0 1 0 0 4 1.999 1.999 0 1 0 0-4zm4 1v2h9v8h-8v2h8.5c.816 0 1.5-.684 1.5-1.5v-9c0-.816-.684-1.5-1.5-1.5H10zM5 8c-1.105 0-2 .895-2 2v6h6v-6h6V8H5zm1 10a1.999 1.999 0 1 0 0 4 1.999 1.999 0 1 0 0-4zm6 0a1.999 1.999 0 1 0 0 4 1.999 1.999 0 1 0 0-4zm6 0a1.999 1.999 0 1 0 0 4 1.999 1.999 0 1 0 0-4z" fill="current" fill-rule="nonzero"></path></g></symbol><symbol id="i-cat-new" viewBox="0 0 24 24" ><path d="M3.5 3C2.673 3 2 3.673 2 4.5V9h1v10c0 1.103.897 2 2 2h14c1.103 0 2-.897 2-2V9h1V4.5c0-.827-.673-1.5-1.5-1.5h-17zM4 5h16v2H4V5zm1 4h14l.002 10H5V9zm4 2v2h6v-2H9z" fill="current" stroke="none"></path></symbol><symbol id="i-cat-rocket" viewBox="0 0 24 24" ><g stroke="none"><path fill-rule="evenodd" clip-rule="evenodd" d="M10.0764 7.53006C10.107 7.92653 9.8103 8.27268 9.41383 8.30321L5.31518 8.61878L4.28424 9.64973C5.19783 10.2271 6.08312 10.8484 6.93711 11.5115L6.9388 11.5128C8.94601 13.0809 10.754 14.8884 12.3222 16.8957C12.9872 17.7488 13.6096 18.6352 14.1863 19.5498L15.2168 18.5192L15.541 14.4192C15.5724 14.0228 15.9191 13.7269 16.3156 13.7582C16.712 13.7896 17.0079 14.1363 16.9766 14.5327L16.6314 18.8974C16.6179 19.0682 16.544 19.2286 16.4228 19.3497L14.5578 21.2147C14.4005 21.3721 14.1792 21.4478 13.9585 21.4199C13.7378 21.3921 13.5423 21.2637 13.429 21.0722C12.7526 19.9289 12.0039 18.8297 11.1874 17.7821C9.69171 15.8677 7.96742 14.1439 6.05303 12.6482C5.00326 11.8332 3.9041 11.0841 2.76164 10.4053C2.57057 10.2917 2.44264 10.0963 2.41501 9.8758C2.38739 9.65526 2.46316 9.43433 2.62031 9.27718L4.48527 7.41223C4.60679 7.29071 4.76776 7.21667 4.93911 7.20348L9.30328 6.86746C9.69975 6.83693 10.0459 7.13359 10.0764 7.53006Z" fill="current"></path><path fill-rule="evenodd" clip-rule="evenodd" d="M10.3585 7.51056C8.94737 9.13873 7.77609 10.9603 6.88087 12.9201L6.87257 12.9377C6.63312 13.4266 6.42206 13.9289 6.24009 14.4421L9.35958 17.5615C9.87753 17.4075 10.3792 17.2012 10.857 16.946C10.8698 16.9392 10.8828 16.9327 10.896 16.9267C12.8534 16.0289 14.6738 14.8595 16.3034 13.4521C16.3113 13.4444 16.3227 13.433 16.3376 13.418C16.371 13.3843 16.4214 13.3327 16.4858 13.2642C16.6148 13.1272 16.7994 12.9235 17.0158 12.6626C17.4498 12.1393 18.0052 11.394 18.4963 10.5029C19.4464 8.7788 20.0963 6.62494 19.34 4.4813C17.131 3.71688 14.9689 4.37232 13.2627 5.31965C12.3798 5.80989 11.6464 6.36427 11.1331 6.7974C10.8773 7.01333 10.678 7.19749 10.5443 7.32602C10.4775 7.39024 10.4272 7.44044 10.3945 7.47362C10.3782 7.4902 10.3659 7.50288 10.3585 7.51056ZM16.791 13.9824C17.2903 14.5012 17.2905 14.501 17.2907 14.5008L17.2927 14.4989L17.2969 14.4947L17.311 14.481C17.3227 14.4694 17.3392 14.453 17.3601 14.432C17.4018 14.39 17.4609 14.3293 17.5344 14.2512C17.6814 14.0951 17.8862 13.8688 18.1241 13.582C18.5987 13.0098 19.2112 12.1892 19.7575 11.1979C20.84 9.23367 21.7277 6.47251 20.5618 3.64627C20.4879 3.46702 20.3448 3.32518 20.1649 3.25283C17.2792 2.09234 14.5204 2.97429 12.5637 4.06069C11.5783 4.60785 10.7679 5.22141 10.2044 5.69689C9.92198 5.93525 9.69964 6.14056 9.54636 6.28791C9.46967 6.36164 9.41013 6.42098 9.36885 6.46287C9.34821 6.48382 9.33212 6.50041 9.32073 6.51226L9.30717 6.52644L9.30307 6.53078L9.30168 6.53224C9.30147 6.53247 9.30075 6.53323 9.82565 7.02607L9.30075 6.53323C9.29434 6.54007 9.28806 6.54702 9.28191 6.5541C7.77785 8.28691 6.52933 10.2262 5.57506 12.313C5.24273 12.9927 4.96038 13.6954 4.72945 14.4154C4.64706 14.6722 4.71518 14.9536 4.90593 15.1444L8.63585 18.8743C8.81359 19.052 9.07117 19.1242 9.31539 19.0647C10.0815 18.878 10.8205 18.5959 11.5159 18.2266C13.596 17.2702 15.5306 16.0251 17.2621 14.5268C17.2717 14.5185 17.2815 14.5096 17.2907 14.5008L16.791 13.9824ZM16.2913 13.464C16.2912 13.4641 16.2912 13.4641 16.2913 13.464V13.464Z" fill="current"></path><path fill-rule="evenodd" clip-rule="evenodd" d="M11.3719 10.4201C11.3719 9.2603 12.3121 8.32004 13.472 8.32004C14.6318 8.32004 15.572 9.26033 15.572 10.4201C15.572 11.5799 14.6318 12.5202 13.472 12.5202C12.3121 12.5202 11.3719 11.58 11.3719 10.4201ZM13.472 9.76004C13.1074 9.76004 12.8119 10.0556 12.8119 10.4201C12.8119 10.7847 13.1074 11.0802 13.472 11.0802C13.8365 11.0802 14.132 10.7847 14.132 10.4201C14.132 10.0556 13.8365 9.76004 13.472 9.76004Z" fill="current"></path><path fill-rule="evenodd" clip-rule="evenodd" d="M13.4368 3.99898C13.7179 3.71781 14.1738 3.71781 14.455 3.99898L19.8447 9.38873C20.1259 9.66991 20.1259 10.1258 19.8447 10.407C19.5635 10.6881 19.1077 10.6881 18.8265 10.407L13.4368 5.01722C13.1556 4.73604 13.1556 4.28016 13.4368 3.99898Z" fill="current"></path><path fill-rule="evenodd" clip-rule="evenodd" d="M3.18925 17.1387C3.46984 16.857 3.92572 16.856 4.20748 17.1366L6.45479 19.3746C6.73655 19.6551 6.7375 20.111 6.45691 20.3928C6.17632 20.6745 5.72044 20.6755 5.43868 20.3949L3.19137 18.157C2.90961 17.8764 2.90866 17.4205 3.18925 17.1387Z" fill="current"></path></g></symbol><symbol id="i-cat-camera" viewBox="0 0 24 24" ><g stroke="none" fill-rule="evenodd"><path d="m15 3-6 .004L7.164 5H4c-1.102 0-2 .898-2 2v12c0 1.102.898 2 2 2h16c1.102 0 2-.898 2-2V7c0-1.102-.898-2-2-2h-3.156L15 3zm-.879 2 1.848 2H20v12H4V7h4.043l1.836-2h4.242zM12 8a5 5 0 1 0 0 10 5 5 0 0 0 0-10zm0 2a3 3 0 1 1-.002 6.002A3 3 0 0 1 12 10z" fill="current" fill-rule="nonzero"></path></g></symbol><symbol id="i-cat-woman" viewBox="0 0 32 32" ><g stroke="none"><path d="M15.336 1.068a14.02 14.02 0 0 0-2.425.168h-.002c-.847.134-1.89.522-2.932 1.02A8.503 8.503 0 0 0 7.833 3.73c-.298-.026-.591-.096-.916-.046-.537.082-1.134.233-1.633.769A2.868 2.868 0 0 0 4.49 6.32c-.806.498-1.383 1.185-1.787 1.887-.839 1.457-1.1 2.988-.543 5.197.344 1.365.457 2.862.593 4.393.111 1.265-.082 3.09-.082 3.09l-.128 1.152 1.156-.04s1.7.033 2.974-1.142c1.027-.946 1.877-2.208 2.106-3.707.018-.12.044-.284.068-.414.356.39.75.766 1.227 1.113-.278 1.851-1.29 3.608-1.29 3.608l-1 1.543h9.887l-.005-1.006s-.004-.818-.006-1.646c-.001-.371-.003-.727-.002-1.028.196-.012.382-.027.656-.021.388.008.776.04 1.25-.06.474-.102.971-.381 1.373-.794h.002v-.002c.407-.419.664-.94.771-1.416.108-.475.122-.891.196-1.441.056-.42.087-.77.107-1.016l.04-.015a2.76 2.76 0 0 0 .958-.551c.163-.143.343-.317.467-.643.125-.325.08-.875-.168-1.207h.002a17.202 17.202 0 0 1-.969-1.511 9.431 9.431 0 0 1-.412-.797c-.072-.163-.094-.323-.101-.305.006-.142.035-.626.002-1.186-.038-.62-.118-1.361-.594-2.048-.105-.152-.177-.212-.254-.291.11-.222.228-.433.307-.74.222-.868.029-2.215-1.102-3.044-.64-.47-1.518-.75-2.768-.968a13.538 13.538 0 0 0-2.086-.196zm-.033 2a11.54 11.54 0 0 1 1.776.166c1.049.183 1.856.56 1.927.612h.002c.524.383.443.556.346.933-.048.189-.143.391-.23.543a2.84 2.84 0 0 1-.118.186c-.032.047-.018.022-.087.127l-.58.869.894.54c-.187-.112-.08-.057-.035-.015.045.043.108.108.172.174.127.133.317.375.226.244.087.125.213.572.24 1.028.028.455-.008.827-.01 1.14-.002.49.137.722.276 1.037.14.316.315.648.504.98.237.417.46.728.691 1.075-.11.039-.236.08-.41.172-.215.113-.535.24-.742.771-.097.25-.08.312-.092.416-.012.104-.02.21-.03.332-.022.246-.047.553-.097.922-.083.622-.115 1.044-.166 1.268-.05.223-.063.264-.254.46-.198.204-.241.21-.359.235-.118.025-.373.025-.791.016-.438-.01-.87-.012-1.295.053a2.085 2.085 0 0 0-.678.203c-.251.128-.604.427-.697.88v.002c-.03.153-.018.135-.02.159l-.001.062c-.002.04-.004.083-.004.135-.002.104-.002.24-.002.402-.001.323 0 .742.002 1.158 0 .326 0 .373.002.647h-4.399c.394-.893.813-2.082.914-3.395l.047-.617-.53-.316c-1.878-1.13-2.497-2.253-2.878-3.871-.176-.748-.16-2.293-.18-3.785l-2 .027c.019 1.43-.061 2.963.233 4.215.044.187.178.348.234.533l-.1.031c.217.705-.016 1.821-.2 3.027-.141.92-.71 1.826-1.483 2.538h-.002c-.193.178-.345.133-.621.226.049-.696.13-1.075.049-1.992v-.002c-.134-1.509-.245-3.11-.647-4.703-.487-1.935-.347-2.524.336-3.711.512-.889.658-1.2 1.33-1.408l.858-.266-.172-.88s-.104-.402.297-.835c-.026.028.195-.114.47-.156.276-.042.628.019.557-.006l.666.229.441-.55c.186-.23 1.046-.84 1.956-1.274.91-.436 1.934-.776 2.382-.846.729-.115 1.431-.156 2.082-.145z" fill="current"></path></g></symbol><symbol id="i-cat-man" viewBox="0 0 32 32" ><g stroke="none"><path d="M16 2.667c-5.875 0-10.667 4.791-10.667 10.666v2.537C4.568 16.6 4 17.538 4 18.667c0 1.656 1.143 2.884 2.591 3.484 1.735 4.146 5.21 7.182 9.409 7.182 4.2 0 7.674-3.035 9.409-7.182 1.448-.6 2.591-1.828 2.591-3.484 0-1.13-.568-2.068-1.333-2.797v-2.537c0-5.875-4.792-10.666-10.667-10.666zm0 2.666c3.54 0 6.52 2.277 7.58 5.45a3.918 3.918 0 0 0-.913-.116H9.333c-.315 0-.619.046-.914.117A7.973 7.973 0 0 1 16 5.334zm-6.667 8h13.334c.753 0 1.333.58 1.333 1.334v2.468l.67.383c.404.233.663.635.663 1.149 0 .686-.491 1.217-1.148 1.307l-.781.11-.284.734c-1.375 3.581-4.109 5.849-7.12 5.849s-5.745-2.268-7.12-5.85l-.284-.734-.78-.109a1.304 1.304 0 0 1-1.15-1.307c0-.514.26-.916.665-1.149L8 17.135v-2.468c0-.754.58-1.334 1.333-1.334z" fill="current"></path></g></symbol><symbol id="i-cat-variant" viewBox="0 0 18 18" stroke="none"><g><path d="M9 1.5L4.875 8.25H13.125L9 1.5ZM9 4.38L10.4475 6.75H7.545L9 4.38ZM13.125 9.75C11.2575 9.75 9.75 11.2575 9.75 13.125C9.75 14.9925 11.2575 16.5 13.125 16.5C14.9925 16.5 16.5 14.9925 16.5 13.125C16.5 11.2575 14.9925 9.75 13.125 9.75ZM13.125 15C12.09 15 11.25 14.16 11.25 13.125C11.25 12.09 12.09 11.25 13.125 11.25C14.16 11.25 15 12.09 15 13.125C15 14.16 14.16 15 13.125 15ZM2.25 16.125H8.25V10.125H2.25V16.125ZM3.75 11.625H6.75V14.625H3.75V11.625Z"></path></g></symbol><symbol id="i-cat-sign" viewBox="0 0 24 24" ><g stroke="none" fill-rule="evenodd"><path d="M11 2v2H3v6h8v2H5l-3 3 3 3h6v4h2v-4h8v-6h-8v-2h6l3-3-3-3h-6V2h-2zM5 6h13.172l1 1-1 1H5V6zm.828 8H19v2H5.828l-1-1 1-1z" fill="current" fill-rule="nonzero"></path></g></symbol><symbol id="i-cat-ticket" viewBox="0 0 24 24" ><g stroke="none"><path d="M20 6V8.537C18.805 9.23 18 10.523 18 12C18 13.477 18.805 14.771 20 15.463V18H4V15.463C5.195 14.771 6 13.478 6 12C6 10.522 5.195 9.229 4 8.537V6H20ZM20 4H4C2.895 4 2 4.895 2 6V10C3.105 10 4 10.895 4 12C4 13.105 3.105 14 2 14V18C2 19.105 2.895 20 4 20H20C21.105 20 22 19.105 22 18V14C20.895 14 20 13.105 20 12C20 10.895 20.895 10 22 10V6C22 4.895 21.105 4 20 4Z" fill="current"></path></g></symbol><symbol id="i-cat-stars" viewBox="0 0 24 24" ><g stroke="none" fill-rule="evenodd"><path d="M18.7545 9.7449C18.4245 9.7449 18.1445 9.5349 18.0445 9.2249C17.6745 8.0949 16.7845 7.2049 15.6645 6.8449C15.3545 6.7449 15.1445 6.4549 15.1445 6.1349C15.1445 5.8149 15.3545 5.5249 15.6645 5.4249C16.7945 5.0549 17.6845 4.1649 18.0445 3.0449C18.1445 2.7349 18.4345 2.5249 18.7545 2.5249C19.0745 2.5249 19.3645 2.7349 19.4645 3.0449C19.8345 4.1749 20.7245 5.0649 21.8445 5.4249C22.1545 5.5249 22.3645 5.8149 22.3645 6.1349C22.3645 6.4549 22.1545 6.7449 21.8445 6.8449C20.7145 7.2149 19.8245 8.1049 19.4645 9.2249C19.3645 9.5349 19.0745 9.7449 18.7545 9.7449ZM17.5345 6.1349C18.0045 6.4749 18.4145 6.8849 18.7545 7.3549C19.0945 6.8849 19.5045 6.4749 19.9745 6.1349C19.5045 5.7949 19.0945 5.3849 18.7545 4.9149C18.4145 5.3849 18.0045 5.7949 17.5345 6.1349Z" fill="current"></path><path d="M10.9953 21.4748C10.4653 21.4748 9.99522 21.1348 9.82522 20.6248L8.32522 16.0148L3.71522 14.5148C3.20522 14.3448 2.86523 13.8848 2.86523 13.3448C2.86523 12.8048 3.20522 12.3448 3.71522 12.1748L8.32522 10.6748L9.82522 6.06484C9.99522 5.55484 10.4553 5.21484 10.9953 5.21484C11.5353 5.21484 11.9953 5.55484 12.1653 6.06484L13.6653 10.6748L18.2753 12.1748C18.7853 12.3448 19.1253 12.8048 19.1253 13.3448C19.1253 13.8848 18.7853 14.3448 18.2753 14.5148L13.6653 16.0148L12.1653 20.6248C11.9953 21.1348 11.5353 21.4748 10.9953 21.4748ZM4.97523 13.3448L8.92523 14.6248C9.30523 14.7448 9.59522 15.0448 9.71522 15.4248L10.9953 19.3648L12.2753 15.4148C12.3953 15.0448 12.6853 14.7448 13.0653 14.6248L17.0153 13.3448L13.0653 12.0648C12.6953 11.9448 12.3953 11.6448 12.2753 11.2748L10.9953 7.33484L9.71522 11.2848C9.59522 11.6548 9.30523 11.9548 8.92523 12.0748L4.97523 13.3548V13.3448Z" fill="current"></path></g></symbol><symbol id="i-cat-speaker" viewBox="0 0 16 16" stroke="none"><path d="M10.4411 11.0642C11.0503 11.0282 11.6355 10.8145 12.1245 10.4494C12.6135 10.0843 12.9848 9.58401 13.1924 9.01021C13.4178 8.40755 13.4479 7.74928 13.2785 7.12855C13.1091 6.50786 12.7487 5.95615 12.2484 5.55156C11.6051 5.11689 6.54573 2.00088 6.3304 1.86888C6.27453 1.83246 6.21187 1.8076 6.1462 1.79576C6.08053 1.78393 6.01313 1.78537 5.948 1.79999C5.88287 1.81461 5.82133 1.84212 5.767 1.88089C5.71273 1.91966 5.66673 1.96892 5.63173 2.02576C5.59673 2.08259 5.57347 2.14586 5.56333 2.21182C5.5532 2.27778 5.55633 2.34511 5.57267 2.40983C5.58893 2.47455 5.618 2.53536 5.65813 2.58866C5.69833 2.64197 5.74873 2.6867 5.80647 2.72022C5.85913 2.75288 11.0624 5.95688 11.6884 6.38022C11.9989 6.66274 12.2183 7.03122 12.3188 7.43875C12.4193 7.84635 12.3963 8.27461 12.2527 8.66901C12.1091 9.06348 11.8514 9.40635 11.5125 9.65395C11.1735 9.90155 10.7685 10.0427 10.3491 10.0595C9.59844 9.98088 3.52247 9.08755 3.46113 9.07821C3.32993 9.05888 3.1964 9.09241 3.08993 9.17148C2.98347 9.25055 2.9128 9.36868 2.89347 9.49988C2.87407 9.63108 2.9076 9.76462 2.98673 9.87108C3.0658 9.97748 3.18393 10.0482 3.31513 10.0675C3.56647 10.1049 9.47377 10.9735 10.2484 11.0542C10.3124 11.0609 10.3767 11.0642 10.4411 11.0642Z" fill="current"></path><path d="M7.83193 14.6652C8.22293 14.6641 8.6042 14.5431 8.9244 14.3187C9.24453 14.0943 9.48823 13.7771 9.62261 13.4099L10.6066 10.7059C10.6445 10.5833 10.6338 10.4507 10.5767 10.3357C10.5196 10.2208 10.4204 10.1322 10.2998 10.0883C10.1791 10.0445 10.0462 10.0487 9.92862 10.1001C9.811 10.1515 9.71766 10.2462 9.66794 10.3645L8.68327 13.0685C8.60113 13.2946 8.4326 13.4788 8.21467 13.5805C7.99673 13.6823 7.74733 13.6933 7.52127 13.6112C7.2952 13.5291 7.11107 13.3605 7.00927 13.1426C6.90753 12.9247 6.89647 12.6753 6.9786 12.4492L7.74527 10.3425C7.76893 10.2806 7.78007 10.2146 7.778 10.1483C7.77587 10.0821 7.76067 10.0169 7.73313 9.95653C7.7056 9.8962 7.66633 9.842 7.61767 9.79693C7.569 9.75193 7.51187 9.71707 7.4496 9.69433C7.38727 9.6716 7.32107 9.66153 7.25487 9.6646C7.18867 9.66773 7.12367 9.68393 7.0638 9.7124C7.00387 9.7408 6.95027 9.78087 6.906 9.83027C6.86173 9.8796 6.82773 9.93727 6.80593 9.99987L6.03927 12.1065C5.9348 12.3948 5.90127 12.7039 5.94153 13.0079C5.98173 13.3118 6.0946 13.6016 6.27053 13.8527C6.4464 14.1038 6.6802 14.3089 6.95213 14.4505C7.224 14.5922 7.526 14.6663 7.8326 14.6665L7.83193 14.6652Z" fill="current"></path><path d="M3.51913 10.0799C4.63979 10.0799 5.93379 8.7132 6.68779 6.64318C7.54446 4.28918 7.28179 2.18318 6.07713 1.74385C5.44113 1.51318 4.70313 1.78652 3.99513 2.51385C2.64746 4.04772 1.92506 6.03188 1.97113 8.0732C2.04513 9.08587 2.43779 9.77054 3.07113 10.0019C3.21473 10.0539 3.36639 10.0803 3.51913 10.0799ZM5.61913 2.66452C5.65866 2.6642 5.69786 2.67075 5.73513 2.68386C6.21313 2.85786 6.45646 4.35052 5.74846 6.30052C5.04046 8.25054 3.89313 9.24187 3.41513 9.06187C3.18246 8.9772 3.01513 8.57054 2.97046 8.00054C2.94513 6.24419 3.56553 4.53968 4.71379 3.21052C4.94093 2.92646 5.26193 2.73282 5.61913 2.66452Z" fill="current"></path></symbol><symbol id="i-cat-shop" viewBox="0 0 24 24" ><g clip-path="url(#clip0_317_2257)" stroke="none"><path d="M5 3C4.448 3 4 3.448 4 4V7L2.07227 11.8203C2.02427 11.9383 2 12.0654 2 12.1934V14H3V19C3 20.0931 3.90694 21 5 21H19C20.0931 21 21 20.0931 21 19V14H22V12.1934C22 12.0664 21.9757 11.9403 21.9277 11.8223L20 7V4C20 3.448 19.552 3 19 3H5ZM7 5C7.552 5 8 5.448 8 6C8 6.552 7.552 7 7 7C6.448 7 6 6.552 6 6C6 5.448 6.448 5 7 5ZM10 5C10.552 5 11 5.448 11 6C11 6.552 10.552 7 10 7C9.448 7 9 6.552 9 6C9 5.448 9.448 5 10 5ZM5 14H19V19H5V14Z" fill="current" fill-rule="nonzero"></path></g><defs><clipPath id="clip0_317_2257" stroke="none"><rect width="24" height="24" fill="none"></rect></clipPath></defs></symbol></svg>